<?xml version="1.0" encoding="iso-8859-1"?>
<!-- Generator: Adobe Illustrator 19.0.0, SVG Export Plug-In . SVG Version: 6.00 Build 0)  -->
<svg xmlns="http://www.w3.org/2000/svg" xmlns:xlink="http://www.w3.org/1999/xlink" version="1.1" id="Layer_1" x="0px" y="0px" viewBox="0 0 512.003 512.003" style="enable-background:new 0 0 512.003 512.003;" xml:space="preserve" width="500" height="500">
<path style="fill:#EEE5DD;" d="M115.355,332.997l203.772-224.392c-25.515-23.171-27.416-62.638-4.245-88.154  c23.171-25.515,62.638-27.415,88.154-4.245C419.282,30.96,425.937,52.32,422.66,72.48c19.751-5.2,41.651-0.629,57.898,14.126  c25.515,23.171,27.416,62.638,4.245,88.153s-62.639,27.416-88.154,4.245L192.876,403.396c25.515,23.171,27.416,62.638,4.245,88.154  c-23.171,25.515-62.638,27.415-88.153,4.245c-16.247-14.755-22.902-36.113-19.625-56.273c-19.751,5.199-41.651,0.627-57.898-14.126  c-25.515-23.171-27.416-62.638-4.245-88.152C50.372,311.727,89.84,309.827,115.355,332.997z"/>
<g style="opacity:0.3;">
	<path style="fill:#1E252B;" d="M115.355,332.997l203.772-224.392c-25.515-23.171-27.416-62.638-4.245-88.154   c23.171-25.515,62.638-27.415,88.154-4.245C419.282,30.96,425.937,52.32,422.66,72.48c19.751-5.2,41.651-0.629,57.898,14.126   c25.515,23.171,27.416,62.638,4.245,88.153s-62.639,27.416-88.154,4.245L192.876,403.396c25.515,23.171,27.416,62.638,4.245,88.154   c-23.171,25.515-62.638,27.415-88.153,4.245c-16.247-14.755-22.902-36.113-19.625-56.273c-19.751,5.199-41.651,0.627-57.898-14.126   c-25.515-23.171-27.416-62.638-4.245-88.152C50.372,311.727,89.84,309.827,115.355,332.997z"/>
</g>
<rect x="176.94" y="209.678" transform="matrix(-0.6723 0.7403 -0.7403 -0.6723 612.944 252.7366)" style="opacity:0.3;fill:#20272E;enable-background:new    ;" width="147.183" height="104.718"/>
<path style="fill:#EEE5DD;" d="M332.998,407.641L108.607,203.867c-23.171,25.515-62.638,27.416-88.154,4.245  c-25.515-23.171-27.415-62.638-4.245-88.153c14.755-16.247,36.115-22.903,56.275-19.625c-5.2-19.751-0.629-41.651,14.126-57.898  c23.171-25.515,62.638-27.416,88.152-4.245c25.515,23.171,27.416,62.639,4.245,88.154l224.39,203.773  c23.171-25.515,62.638-27.416,88.154-4.245c25.515,23.171,27.415,62.638,4.245,88.154c-14.755,16.247-36.113,22.902-56.273,19.625  c5.2,19.75,0.627,41.651-14.126,57.898c-23.171,25.515-62.638,27.416-88.152,4.245C311.728,472.623,309.828,433.156,332.998,407.641  z"/>
<g>
</g>
<g>
</g>
<g>
</g>
<g>
</g>
<g>
</g>
<g>
</g>
<g>
</g>
<g>
</g>
<g>
</g>
<g>
</g>
<g>
</g>
<g>
</g>
<g>
</g>
<g>
</g>
<g>
</g>
</svg>
