<?xml version="1.0"?>
<svg xmlns="http://www.w3.org/2000/svg" xmlns:xlink="http://www.w3.org/1999/xlink" enable-background="new 0 0 24 24" id="Layer_1" version="1.1" viewBox="0 0 24 24" xml:space="preserve" width="500" height="500"><g><path d="M22.5002441,22h-0.5878296c-0.1656494-0.4598389-0.5552979-0.8168335-1.0645142-0.9414062   C20.4475098,19.8466797,19.3010254,19,17.9768066,19c-0.8974609,0.0180664-1.71875-0.3544922-2.2714844-1.0209961   c-0.1484985-0.1789551-0.3093262-0.3438721-0.4765015-0.5005493l7.124939-7.124939   c0.1953125-0.1953125,0.1953125-0.5117188,0-0.7070312L22.2072754,9.5l0.6464844-0.6464844   c0.1953125-0.1953125,0.1953125-0.5117188,0-0.7070312l-7-7c-0.1953125-0.1953125-0.5117188-0.1953125-0.7070312,0   l-0.6464844,0.6464844l-0.1464844-0.1464844c-0.1953125-0.1953125-0.5117188-0.1953125-0.7070312,0l-12,12   c-0.1953125,0.1953125-0.1953125,0.5117188,0,0.7070312L1.7932129,14.5l-0.6469727,0.6469727   c-0.1953125,0.1953125-0.1953125,0.5117188,0,0.7070312l3.1867676,3.1867676   c-0.1455078,0.31427-0.256958,0.647644-0.3034668,1.0036621C3.0380249,20.2340088,2.2566528,21.0127563,2.0548096,22H1.5002441   c-0.2763672,0-0.5,0.2236328-0.5,0.5s0.2236328,0.5,0.5,0.5h21c0.2763672,0,0.5-0.2236328,0.5-0.5S22.7766113,22,22.5002441,22z" fill="#303C42"/><path d="M2.2067871,15.5004883l0.6469727-0.6469727c0.1953125-0.1953125,0.1953125-0.5117188,0-0.7070312   L2.7072754,14L14.0002441,2.7070312l0.1464844,0.1464844c0.1953125,0.1953125,0.5117188,0.1953125,0.7070312,0l0.6464844-0.6464844   L21.7932129,8.5l-0.6464844,0.6464844c-0.1953125,0.1953125-0.1953125,0.5117188,0,0.7070312L21.2932129,10l-6.8604126,6.8604126   C13.5655518,16.3062744,12.5541992,16,11.5002441,16c-1.1723633,0-2.2915039,0.3769531-3.2524414,1.0922852   c-0.1983032-0.0471191-0.3798828-0.0583496-0.5632935-0.069519l0.0720825-0.0720825   C7.8366089,16.9713745,7.9138794,17,8.0002441,17c0.5512695,0,1-0.4487305,1-1   c0-0.0863647-0.0286255-0.1636353-0.0493164-0.2436523l1.0493164-1.0493164l0.1464844,0.1464844   C10.2443848,14.9511719,10.3723145,15,10.5002441,15s0.2558594-0.0488281,0.3535156-0.1464844   c0.1953125-0.1953125,0.1953125-0.5117188,0-0.7070312L10.7072754,14l1.0493164-1.0493164   C11.8366089,12.9713745,11.9138794,13,12.0002441,13c0.5512695,0,1-0.4487305,1-1   c0-0.0863647-0.0286255-0.1636353-0.0493164-0.2436523l1.0493164-1.0493164l0.1464844,0.1464844   C14.2443848,10.9511719,14.3723145,11,14.5002441,11s0.2558594-0.0488281,0.3535156-0.1464844   c0.1953125-0.1953125,0.1953125-0.5117188,0-0.7070312L14.7072754,10l1.0493164-1.0493164   C15.8366089,8.9713745,15.9138794,9,16.0002441,9c0.5512695,0,1-0.4487305,1-1   c0-0.0863647-0.0286255-0.1636353-0.0493164-0.2436523l0.9018555-0.9018555c0.1953125-0.1953125,0.1953125-0.5117188,0-0.7070312   s-0.5117188-0.1953125-0.7070312,0l-0.9018555,0.9018555C16.1638794,7.0286255,16.0866089,7,16.0002441,7   c-0.5512695,0-1,0.4487305-1,1c0,0.0863647,0.0286255,0.1636353,0.0493164,0.2436523l-1.0493164,1.0493164l-0.1464844-0.1464844   c-0.1953125-0.1953125-0.5117188-0.1953125-0.7070312,0s-0.1953125,0.5117188,0,0.7070312L13.2932129,10l-1.0493164,1.0493164   C12.1638794,11.0286255,12.0866089,11,12.0002441,11c-0.5512695,0-1,0.4487305-1,1   c0,0.0863647,0.0286255,0.1636353,0.0493164,0.2436523l-1.0493164,1.0493164l-0.1464844-0.1464844   c-0.1953125-0.1953125-0.5117188-0.1953125-0.7070312,0s-0.1953125,0.5117188,0,0.7070312L9.2932129,14l-1.0493164,1.0493164   C8.1638794,15.0286255,8.0866089,15,8.0002441,15c-0.5512695,0-1,0.4487305-1,1   c0,0.0863647,0.0286255,0.1636353,0.0493164,0.2436523l-1.168396,1.168396   c-0.3757324,0.197876-0.7092896,0.4589844-0.9890137,0.7738037L2.2067871,15.5004883z" fill="#E4E1DC"/><path d="M3.0002441,16.293457l0.6469727-0.6469727   c0.1953125-0.1953125,0.1953125-0.5117188,0-0.7070312l-0.1464844-0.1464844L14.7937012,3.5l0.1464844,0.1464844   c0.1953125,0.1953125,0.5117188,0.1953125,0.7070312,0l0.6462402-0.6462402l-0.7932129-0.7932129l-0.6464844,0.6464844   c-0.1953125,0.1953125-0.5117188,0.1953125-0.7070312,0l-0.1464844-0.1464844L2.7072754,14l0.1464844,0.1464844   c0.1953125,0.1953125,0.1953125,0.5117188,0,0.7070312l-0.6469727,0.6469727l2.6853638,2.6853638l0.0002441-0.0002441   L3.0002441,16.293457z" fill="#FFFFFF" opacity="0.2"/><path d="M8.5002441,21.5c-0.276123,0-0.5,0.2238159-0.5,0.5H3.0923462c0.2070923-0.5807495,0.756897-1,1.4078979-1   c0.2763672,0,0.5-0.2236328,0.5-0.5c0-1.378418,1.121582-2.5,2.5-2.5c0.2172852,0,0.4448242,0.0375977,0.7148438,0.1186523   c0.1591797,0.0473633,0.3310547,0.0131836,0.4594727-0.0913086C9.4987793,17.3549805,10.4763184,17,11.5002441,17   c1.3300781,0,2.5820312,0.5898438,3.4355469,1.6176758C15.6760254,19.5102539,16.744873,20,17.9641113,20   c0.9838867,0.0161133,1.809082,0.6640625,1.996582,1.6074219C20.0037231,21.8230591,20.1828003,21.9754639,20.3948364,22H9.0002441   C9.0002441,21.7238159,8.7763672,21.5,8.5002441,21.5z" fill="#FAFAFA"/><circle cx="6.5002441" cy="20.5" fill="#303C42" r="0.5"/><circle cx="9.5002441" cy="20.5" fill="#303C42" r="0.5"/><linearGradient gradientUnits="userSpaceOnUse" id="SVGID_1_" x1="3.4739597" x2="24.474802" y1="9.6562529" y2="19.4491062"><stop offset="0" style="stop-color:#FFFFFF;stop-opacity:0.2"/><stop offset="1" style="stop-color:#FFFFFF;stop-opacity:0"/></linearGradient><path d="M22.5002441,22h-0.5878296c-0.1656494-0.4598389-0.5552979-0.8168335-1.0645142-0.9414062   C20.4475098,19.8466797,19.3010254,19,17.9768066,19c-0.8974609,0.0180664-1.71875-0.3544922-2.2714844-1.0209961   c-0.1484985-0.1789551-0.3093262-0.3438721-0.4765015-0.5005493l7.124939-7.124939   c0.1953125-0.1953125,0.1953125-0.5117188,0-0.7070312L22.2072754,9.5l0.6464844-0.6464844   c0.1953125-0.1953125,0.1953125-0.5117188,0-0.7070312l-7-7c-0.1953125-0.1953125-0.5117188-0.1953125-0.7070312,0   l-0.6464844,0.6464844l-0.1464844-0.1464844c-0.1953125-0.1953125-0.5117188-0.1953125-0.7070312,0l-12,12   c-0.1953125,0.1953125-0.1953125,0.5117188,0,0.7070312L1.7932129,14.5l-0.6469727,0.6469727   c-0.1953125,0.1953125-0.1953125,0.5117188,0,0.7070312l3.1867676,3.1867676   c-0.1455078,0.31427-0.256958,0.647644-0.3034668,1.0036621C3.0380249,20.2340088,2.2566528,21.0127563,2.0548096,22H1.5002441   c-0.2763672,0-0.5,0.2236328-0.5,0.5s0.2236328,0.5,0.5,0.5h21c0.2763672,0,0.5-0.2236328,0.5-0.5S22.7766113,22,22.5002441,22z" fill="url(#SVGID_1_)"/></g><g/><g/><g/><g/><g/><g/><g/><g/><g/><g/><g/><g/><g/><g/><g/></svg>
