<?xml version="1.0" encoding="iso-8859-1"?>
<!-- Generator: Adobe Illustrator 19.0.0, SVG Export Plug-In . SVG Version: 6.00 Build 0)  -->
<svg xmlns="http://www.w3.org/2000/svg" xmlns:xlink="http://www.w3.org/1999/xlink" version="1.1" id="Layer_1" x="0px" y="0px" viewBox="0 0 512 512" style="enable-background:new 0 0 512 512;" xml:space="preserve" width="500" height="500">
<path style="fill:#1E252B;" d="M310.553,485.39h-52.491c-5.461,0-9.885-4.425-9.885-9.885v-52.29c0-5.461,4.425-9.885,9.885-9.885  c5.461,0,9.885,4.425,9.885,9.885v42.404h42.606c5.461,0,9.885,4.425,9.885,9.885C320.438,480.965,316.014,485.39,310.553,485.39z"/>
<path style="fill:#3D3C40;" d="M213.11,234.255l-43.442,188.96h88.394c64.029,0,115.935-51.906,115.935-115.935V190.814  L213.11,234.255z"/>
<path style="fill:#1E252B;" d="M374.373,119.641c0,0,103.112-22.466,137.627,77.075H357.902L374.373,119.641z"/>
<path style="fill:#4C4B4F;" d="M311.936,26.61h-19.418c-57.237,0-103.637,46.399-103.637,103.637v103.567H320.69  c51.807,0,93.804-41.999,93.804-93.804v-10.841C414.495,72.527,368.578,26.61,311.936,26.61z"/>
<circle style="fill:#1E252B;" cx="341.036" cy="130.115" r="17.292"/>
<path style="fill:#5A595C;" d="M230.168,212.952h-6.498c-22.143,0-43.241,9.408-58.039,25.881L0,423.217h162.944  c76.625,0,138.743-62.118,138.743-138.743l0,0C301.687,244.973,269.667,212.952,230.168,212.952z"/>
<g>
</g>
<g>
</g>
<g>
</g>
<g>
</g>
<g>
</g>
<g>
</g>
<g>
</g>
<g>
</g>
<g>
</g>
<g>
</g>
<g>
</g>
<g>
</g>
<g>
</g>
<g>
</g>
<g>
</g>
</svg>
