<?xml version="1.0" encoding="iso-8859-1"?>
<!-- Generator: Adobe Illustrator 19.0.0, SVG Export Plug-In . SVG Version: 6.00 Build 0)  -->
<svg xmlns="http://www.w3.org/2000/svg" xmlns:xlink="http://www.w3.org/1999/xlink" version="1.1" id="Layer_1" x="0px" y="0px" viewBox="0 0 512.001 512.001" style="enable-background:new 0 0 512.001 512.001;" xml:space="preserve" width="500" height="500">
<path style="fill:#ECB400;" d="M439.766,98.729c0,0-0.988,42.612-31.278,42.612c30.29,0,31.278,42.612,31.278,42.612  s0.988-42.612,31.278-42.612C440.753,141.341,439.766,98.729,439.766,98.729z"/>
<path style="fill:#FFE046;" d="M86.138,51.234c0,0-0.988,42.612-31.278,42.612c30.29,0,31.278,42.612,31.278,42.612  s0.988-42.612,31.278-42.612C87.125,93.845,86.138,51.234,86.138,51.234z"/>
<path style="fill:#ECB400;" d="M90.85,375.543c0,0-0.988,42.612-31.278,42.612c30.29,0,31.278,42.612,31.278,42.612  s0.988-42.612,31.278-42.612C91.837,418.154,90.85,375.543,90.85,375.543z"/>
<path style="fill:#A93CCB;" d="M27.302,218.84c7.561,0,14.404,3.075,19.348,8.04c-0.388-2.625-0.594-5.308-0.594-8.04  c0-30.158,24.448-54.605,54.605-54.605c28.777,0,52.338,22.266,54.436,50.507c4.602-2.642,9.931-4.159,15.619-4.159  c17.359,0,31.432,14.072,31.432,31.431s-14.072,31.431-31.432,31.431H27.302C12.223,273.445,0,261.221,0,246.142  C0,231.063,12.223,218.84,27.302,218.84z"/>
<circle style="fill:#FFE046;" cx="249.677" cy="256.418" r="167.744"/>
<path style="opacity:0.3;fill:#20272E;enable-background:new    ;" d="M249.677,88.675v335.489  c92.642,0,167.744-75.102,167.744-167.744S342.321,88.675,249.677,88.675z"/>
<path style="fill:#A93CCB;" d="M478.142,282.446c-9.376,0-17.861,3.813-23.992,9.972c0.481-3.254,0.737-6.583,0.737-9.972  c0-37.398-30.316-67.714-67.714-67.714c-35.686,0-64.903,27.611-67.504,62.633c-5.707-3.275-12.316-5.157-19.368-5.157  c-21.527,0-38.977,17.451-38.977,38.977c0,21.527,17.451,38.977,38.977,38.977h177.843c18.699,0,33.857-15.159,33.857-33.857  C512,297.605,496.841,282.446,478.142,282.446z"/>
<g>
</g>
<g>
</g>
<g>
</g>
<g>
</g>
<g>
</g>
<g>
</g>
<g>
</g>
<g>
</g>
<g>
</g>
<g>
</g>
<g>
</g>
<g>
</g>
<g>
</g>
<g>
</g>
<g>
</g>
</svg>
