<?xml version="1.0" encoding="iso-8859-1"?>
<!-- Generator: Adobe Illustrator 19.0.0, SVG Export Plug-In . SVG Version: 6.00 Build 0)  -->
<svg xmlns="http://www.w3.org/2000/svg" xmlns:xlink="http://www.w3.org/1999/xlink" version="1.1" id="Layer_1" x="0px" y="0px" viewBox="0 0 512 512" style="enable-background:new 0 0 512 512;" xml:space="preserve" width="500" height="500">
<path style="fill:#E0E0E2;" d="M201.117,507.118L256,444.457l54.883,62.661c6.509,6.509,17.062,6.509,23.571,0l54.884-62.661  l38.216,45.994c10.499,10.499,28.453,3.063,28.453-11.786V201.719C456.006,91.512,365.84-0.197,255.633,0  C145.341,0.198,55.994,89.667,55.994,200.006v278.66c0,14.849,17.953,22.285,28.453,11.786l38.216-45.995l54.883,62.661  C184.056,513.627,194.608,513.627,201.117,507.118z"/>
<path style="fill:#C6C5CA;" d="M334.454,507.118l54.883-62.661l38.216,45.994c10.499,10.499,28.453,3.063,28.453-11.786V200.006  C456.006,89.545,366.461,0,256,0v444.457l54.883,62.661C317.393,513.627,327.945,513.627,334.454,507.118z"/>
<g>
	<path style="fill:#5D5D5D;" d="M339.336,166.672c27.573,0,50.001,22.43,50.001,50.001s-22.428,50.001-50.001,50.001   c-27.572,0-50.001-22.43-50.001-50.001S311.764,166.672,339.336,166.672z"/>
	<path style="fill:#5D5D5D;" d="M172.664,166.672c27.572,0,50.001,22.43,50.001,50.001s-22.43,50.001-50.001,50.001   c-27.573,0-50.001-22.43-50.001-50.001S145.092,166.672,172.664,166.672z"/>
</g>
<g>
</g>
<g>
</g>
<g>
</g>
<g>
</g>
<g>
</g>
<g>
</g>
<g>
</g>
<g>
</g>
<g>
</g>
<g>
</g>
<g>
</g>
<g>
</g>
<g>
</g>
<g>
</g>
<g>
</g>
</svg>
