<?xml version="1.0"?>
<svg xmlns="http://www.w3.org/2000/svg" width="500" height="500" viewBox="0 0 512.096 512.096"><g><path fill="#53433f" d="m52.15 355.252h141.808v125.016h-141.808z" transform="matrix(.707 -.707 .707 .707 -259.359 209.37)"/><path fill="#3e322e" d="m74.25 408.606h141.808v62.508h-141.808z" transform="matrix(.707 -.707 .707 .707 -268.513 231.47)"/><path fill="#725d57" d="m139.059 295.141h88.212v125.016h-88.212z" transform="matrix(.707 -.707 .707 .707 -199.249 234.271)"/><path fill="#53433f" d="m161.159 348.495h88.212v62.508h-88.212z" transform="matrix(.707 -.707 .707 .707 -208.402 256.37)"/><path fill="#f5f0ff" d="m406.126 186.923c16.485-23.979 18.868-55.156 6.217-81.362l-21.321-44.169-242.083 242.083 120.145 120.145 148.317-148.317c1.203-1.203 2.387-2.422 3.56-3.648l-17.22-30.467c-9.571-16.936-8.634-38.235 2.385-54.265z"/><path fill="#e1dcf3" d="m406.126 186.923c13.044-18.973 17.249-42.45 12.174-64.407l-225.161 225.159 75.945 75.944 148.317-148.317c1.203-1.203 2.387-2.422 3.56-3.648l-17.22-30.467c-9.571-16.935-8.634-38.234 2.385-54.264z"/><path fill="#ff4949" d="m461.999 20.426-9.585-20.426-83.859 83.859 16.772 34.744c7.98 16.531 6.477 36.198-3.922 51.325-17.469 25.411-18.953 59.175-3.78 86.021l21.353 37.778 18.425-18.425c32.913-32.913 54.55-74.543 62.572-120.393 8.021-45.848 1.805-92.353-17.976-134.483z"/><path fill="#ff4949" d="m445.249 343.175c-6.827-9.542-13.593-17.152-13.877-17.472l-11.196-12.558-11.196 12.558c-.285.319-7.051 7.93-13.877 17.472-10.694 14.948-15.675 26.263-15.675 35.611 0 22.469 18.28 40.749 40.749 40.749s40.748-18.28 40.748-40.749c-.002-9.348-4.982-20.663-15.676-35.611z"/><g fill="#cc2e43"><path d="m445.249 343.175c-6.827-9.542-13.593-17.152-13.877-17.472l-11.196-12.558-11.196 12.558c-.285.319-7.051 7.93-13.877 17.472-10.694 14.948-15.675 26.263-15.675 35.611 0 22.469 18.28 40.749 40.749 40.749s40.748-18.28 40.748-40.749c-.002-9.348-4.982-20.663-15.676-35.611z"/><path d="m389.289 151.526c-1.374 6.499-4.01 12.766-7.884 18.401-17.469 25.411-18.953 59.175-3.78 86.021l21.353 37.778 18.425-18.425c32.913-32.913 54.55-74.543 62.572-120.393 5.359-30.632 4.354-61.554-2.796-91.271z"/></g></g></svg>
