<?xml version="1.0" encoding="utf-8"?>
<!-- Generator: Adobe Illustrator 16.0.0, SVG Export Plug-In . SVG Version: 6.00 Build 0)  -->
<!DOCTYPE svg PUBLIC "-//W3C//DTD SVG 1.1//EN" "http://www.w3.org/Graphics/SVG/1.1/DTD/svg11.dtd">
<svg xmlns="http://www.w3.org/2000/svg" xmlns:xlink="http://www.w3.org/1999/xlink" version="1.1" id="Layer_1" x="0px" y="0px" width="500" height="500" viewBox="0 0 512 512" enable-background="new 0 0 512 512" xml:space="preserve">
<g id="rainbow">
	<path fill="#A0D468" d="M369.856,353.856l50-18.671c0,0-4.391-58.296-5.516-58.483C413.2,276.515,373.2,205.86,373.2,205.86   l-87.998-43.999l-50.67-9.344l-60.671,27.344l-55.999,57.998l-21.859,93.326l40.53,11.328l3.328-53.327l19.343-49.999   l46.655-33.999l48.343-5.625l48.999,2.953l35.999,30l30.655,47.342v39.999V353.856z"/>
	<polygon fill="#FC6E51" points="460.527,330.514 456.527,289.858 436.527,219.188 409.856,183.564 361.856,139.19 280.53,114.519    246.532,114.519 206.533,121.862 159.206,141.19 128.003,155.189 96.004,195.189 64.536,260.516 47.864,301.186 80.536,335.186    96.004,304.248 109.863,246.516 149.862,186.658 207.205,160.518 285.202,153.861 346.529,183.564 383.997,207.188 409.2,255.188    419.856,299.857 419.856,335.186  "/>
	<path fill="#5D9CEC" d="M153.19,343.107c-2.516-9.062-3.859-18.594-3.859-28.438c0-58.826,47.843-106.669,106.669-106.669   c58.812,0,106.653,47.843,106.653,106.669c0,9.844-1.344,19.375-3.859,28.438h22c2.094-9.156,3.203-18.672,3.203-28.438   c0-70.592-57.42-128.012-127.997-128.012c-70.592,0-127.997,57.42-127.997,128.012c0,9.766,1.094,19.281,3.188,28.438H153.19z"/>
	<path fill="#FFCE54" d="M109.363,343.107c-1.781-9.281-2.703-18.781-2.703-28.438c0-39.89,15.531-77.389,43.733-105.606   C178.611,180.861,216.111,165.33,256,165.33c39.874,0,77.373,15.531,105.591,43.733c28.203,28.218,43.734,65.717,43.734,105.606   c0,9.656-0.922,19.156-2.703,28.438h21.688c1.547-9.312,2.344-18.812,2.344-28.438c0-45.592-17.75-88.45-49.984-120.684   c-32.233-32.234-75.092-49.983-120.669-49.983c-45.592,0-88.451,17.749-120.685,49.983   c-32.233,32.233-49.983,75.092-49.983,120.684c0,9.625,0.796,19.125,2.359,28.438H109.363z"/>
	<path fill="#ED5564" d="M66.083,343.107c-1.391-9.328-2.078-18.828-2.078-28.438c0-51.295,19.968-99.513,56.233-135.777   c36.249-36.249,84.467-56.233,135.762-56.233c51.28,0,99.497,19.984,135.747,56.233c36.265,36.265,56.249,84.482,56.249,135.777   c0,9.609-0.703,19.109-2.094,28.438h21.531c1.25-9.359,1.891-18.844,1.891-28.438c0-56.982-22.188-110.56-62.483-150.855   c-40.297-40.296-93.873-62.482-150.841-62.482c-56.982,0-110.56,22.187-150.856,62.482C64.849,204.11,42.662,257.688,42.662,314.67   c0,9.594,0.641,19.078,1.891,28.438H66.083z"/>
	<g>
		<path fill="#E6E9ED" d="M149.331,325.326H126.05c-4.484-12.266-16.312-21.078-30.046-21.078c-6.641,0-12.937,2.016-18.218,5.672    c-7.5-3.891-15.828-5.922-24.453-5.922c-29.406,0-53.327,23.922-53.327,53.327s23.921,53.343,53.327,53.343h95.998    c23.515,0,42.671-19.141,42.671-42.671S172.846,325.326,149.331,325.326z"/>
		<path fill="#E6E9ED" d="M458.652,303.998c-8.625,0-16.938,2.031-24.453,5.922c-5.281-3.656-11.577-5.672-18.202-5.672    c-13.75,0-25.578,8.812-30.062,21.078h-23.281c-23.53,0-42.654,19.141-42.654,42.671s19.124,42.671,42.654,42.671h95.999    c29.405,0,53.342-23.938,53.342-53.343S488.058,303.998,458.652,303.998z"/>
	</g>
</g>
</svg>
