<?xml version="1.0"?>
<svg xmlns="http://www.w3.org/2000/svg" width="500" height="500" viewBox="0 0 85.333 85.333"><defs><clipPath id="a" clipPathUnits="userSpaceOnUse"><path d="M 40,580.059 C 40,602.117 57.9961,620 80.0508,620 H 559.949 C 582.07,620 600,602.102 600,580.059 V 139.941 C 600,117.883 582.004,100 559.949,100 H 80.0508 C 57.9297,100 40,117.898 40,139.941 Z" style="clip-rule:evenodd"/></clipPath><clipPath id="b" clipPathUnits="userSpaceOnUse"><path d="M 0,0 H 640 V 640 H 0 Z"/></clipPath><clipPath id="c" clipPathUnits="userSpaceOnUse"><path d="M 80,230 H 180 V 200 H 80 Z"/></clipPath><clipPath id="d" clipPathUnits="userSpaceOnUse"><path d="M 80,200 H 180 V 170 H 80 Z"/></clipPath><clipPath id="e" clipPathUnits="userSpaceOnUse"><path d="M 80,170 H 180 V 140 H 80 Z"/></clipPath><clipPath id="f" clipPathUnits="userSpaceOnUse"><path d="m 90,540 c 0,16.57 13.52,30 30.004,30 H 519.996 C 536.566,570 550,556.527 550,540 V 300 c 0,-16.57 -13.52,-30 -30.004,-30 H 120.004 C 103.434,270 90,283.473 90,300 Z" style="clip-rule:evenodd"/></clipPath><clipPath id="g" clipPathUnits="userSpaceOnUse"><path d="M 0,0 H 640 V 640 H 0 Z"/></clipPath><clipPath id="h" clipPathUnits="userSpaceOnUse"><path d="M 120,100 H 520 V 30 H 120 Z"/></clipPath></defs><g transform="matrix(1.3333333,0,0,-1.3333333,0,85.333333)"><g transform="scale(0.1)"><g><g clip-path="url(#a)"><g clip-path="url(#b)"><path d="M 0,50 H 650 V 670 H 0 Z" style="fill:#ffde93;fill-opacity:1;fill-rule:nonzero;stroke:none"/></g></g></g><path d="M 370,190 H 540" style="fill:none;stroke:#979797;stroke-width:20;stroke-linecap:square;stroke-linejoin:miter;stroke-miterlimit:10;stroke-dasharray:none;stroke-opacity:1"/><g><g clip-path="url(#c)"><path d="M 30,150 H 230 V 280 H 30 Z" style="fill:#21ba8d;fill-opacity:1;fill-rule:nonzero;stroke:none"/></g></g><g><g clip-path="url(#d)"><path d="M 30,120 H 230 V 250 H 30 Z" style="fill:#d64ec8;fill-opacity:1;fill-rule:nonzero;stroke:none"/></g></g><g><g clip-path="url(#e)"><path d="M 30,90 H 230 V 220 H 30 Z" style="fill:#585858;fill-opacity:1;fill-rule:nonzero;stroke:none"/></g></g><g><g clip-path="url(#f)"><g clip-path="url(#g)"><path d="M 40,220 H 600 V 620 H 40 Z" style="fill:#5a67c1;fill-opacity:1;fill-rule:nonzero;stroke:none"/></g></g></g><path d="M 120,496.09 153.91,530" style="fill:none;stroke:#b4dffc;stroke-width:20;stroke-linecap:round;stroke-linejoin:miter;stroke-miterlimit:10;stroke-dasharray:none;stroke-opacity:1"/><path d="M 121.93,448.023 203.91,530" style="fill:none;stroke:#b4dffc;stroke-width:20;stroke-linecap:round;stroke-linejoin:miter;stroke-miterlimit:10;stroke-dasharray:none;stroke-opacity:1"/><g><g clip-path="url(#h)"><path d="M 70,0 H 570 V 150 H 70 Z" style="fill:#585858;fill-opacity:1;fill-rule:nonzero;stroke:none"/></g></g></g></g></svg>
