<?xml version="1.0" encoding="iso-8859-1"?>
<!-- Generator: Adobe Illustrator 18.0.0, SVG Export Plug-In . SVG Version: 6.00 Build 0)  -->
<!DOCTYPE svg PUBLIC "-//W3C//DTD SVG 1.1//EN" "http://www.w3.org/Graphics/SVG/1.1/DTD/svg11.dtd">
<svg xmlns="http://www.w3.org/2000/svg" xmlns:xlink="http://www.w3.org/1999/xlink" version="1.1" id="Capa_1" x="0px" y="0px" viewBox="0 0 398 398" style="enable-background:new 0 0 398 398;" xml:space="preserve" width="500" height="500">
<g>
	<rect x="0" y="73.89" style="fill:#EA535E;" width="398" height="271"/>
	<path style="fill:#D14253;" d="M198.995,101.69v234.4H13.005V63.11h147.41C181.725,63.11,198.995,80.38,198.995,101.69z"/>
	<path style="fill:#D14253;" d="M384.985,63.11v272.98h-185.99v-234.4c0-21.31,17.28-38.58,38.59-38.58H384.985z"/>
	<path style="fill:#F9E575;" d="M198.995,91.69v234.4H13.005V53.11h147.41C181.725,53.11,198.995,70.38,198.995,91.69z"/>
	<path style="fill:#F9E575;" d="M384.985,53.11v272.98h-185.99V91.69c0-21.31,17.28-38.58,38.59-38.58H384.985z"/>
	<path style="fill:#E5D16E;" d="M237.585,53.11v272.98h-77.17V53.11c15.58,0,28.99,9.23,35.08,22.51c2.25,4.89,3.5,10.33,3.5,16.07   c0-5.74,1.25-11.18,3.5-16.07C208.585,62.34,222.005,53.11,237.585,53.11z"/>
	<path style="fill:#CCB966;" d="M202.495,75.62v250.47h-7V75.62c2.25,4.89,3.5,10.33,3.5,16.07   C198.995,85.95,200.245,80.51,202.495,75.62z"/>
	<g>
		<rect x="49.435" y="92.525" style="fill:#4D4D4D;" width="93" height="13"/>
		<rect x="49.435" y="122.919" style="fill:#4D4D4D;" width="93" height="13"/>
		<rect x="49.435" y="153.313" style="fill:#4D4D4D;" width="93" height="13"/>
		<rect x="49.435" y="183.707" style="fill:#4D4D4D;" width="93" height="13"/>
		<rect x="49.435" y="214.101" style="fill:#4D4D4D;" width="93" height="13"/>
		<rect x="49.435" y="244.496" style="fill:#4D4D4D;" width="93" height="13"/>
		<rect x="49.435" y="274.89" style="fill:#4D4D4D;" width="93" height="13"/>
	</g>
	<g>
		<rect x="264.435" y="97.097" style="fill:#4D4D4D;" width="93" height="13"/>
		<rect x="264.435" y="269.049" style="fill:#4D4D4D;" width="93" height="13"/>
	</g>
	<path style="fill:#EA535E;" d="M307.435,129.1c-33.359,0-60.5,27.14-60.5,60.5s27.141,60.5,60.5,60.5s60.5-27.14,60.5-60.5   S340.794,129.1,307.435,129.1z M297.364,204.278l-6.225-19.157l16.296-11.839l16.296,11.839l-6.225,19.157H297.364z    M315.232,211.278l-7.797,23.995l-7.797-23.995H315.232z M290.003,204.278h-25.231l20.412-14.831L290.003,204.278z    M288.865,178.121l-7.796-23.996l20.412,14.83L288.865,178.121z M313.39,168.955l20.412-14.83l-7.796,23.996L313.39,168.955z    M329.685,189.447l20.412,14.831h-25.231L329.685,189.447z M360.935,189.6c0,4.401-0.545,8.676-1.552,12.771l-27.423-19.924   l10.734-33.034C353.864,159.225,360.935,173.598,360.935,189.6z M335.618,144.153l-28.183,20.476l-28.183-20.476   c8.19-5.098,17.846-8.053,28.183-8.053S327.427,139.055,335.618,144.153z M272.176,149.413l10.734,33.034l-27.423,19.924   c-1.007-4.095-1.552-8.37-1.552-12.771C253.935,173.598,261.006,159.225,272.176,149.413z M258.541,211.278h33.737l10.264,31.589   C282.866,241.073,266.245,228.586,258.541,211.278z M312.329,242.867l10.264-31.589h33.737   C348.625,228.586,332.004,241.073,312.329,242.867z"/>
</g>
<g>
</g>
<g>
</g>
<g>
</g>
<g>
</g>
<g>
</g>
<g>
</g>
<g>
</g>
<g>
</g>
<g>
</g>
<g>
</g>
<g>
</g>
<g>
</g>
<g>
</g>
<g>
</g>
<g>
</g>
</svg>
