<?xml version="1.0" encoding="iso-8859-1"?>
<!-- Generator: Adobe Illustrator 19.0.0, SVG Export Plug-In . SVG Version: 6.00 Build 0)  -->
<svg xmlns="http://www.w3.org/2000/svg" xmlns:xlink="http://www.w3.org/1999/xlink" version="1.1" id="Layer_1" x="0px" y="0px" viewBox="0 0 512.002 512.002" style="enable-background:new 0 0 512.002 512.002;" xml:space="preserve" width="500" height="500">
<path style="fill:#2BA5F7;" d="M506.835,350.846l-41.2-17.066c-17.983-50.302-17.983-105.253,0-155.555l36.738-15.218  c4.269-1.768,6.297-6.663,4.528-10.93c-1.768-4.268-6.661-6.297-10.93-4.528l-36.739,15.218  c-48.284-22.853-87.141-61.709-109.994-109.994l6.52-15.74c1.769-4.269-0.258-9.162-4.528-10.93  c-4.264-1.766-9.161,0.259-10.93,4.528l-6.52,15.74c-50.303,17.982-105.253,17.982-155.556-0.001l-8.872-21.42  c-1.768-4.268-6.661-6.297-10.93-4.528s-6.297,6.663-4.528,10.93l8.872,21.42c-22.853,48.284-61.71,87.141-109.994,109.994  L11.57,145.699c-4.269-1.768-9.162,0.26-10.93,4.528c-1.769,4.269,0.258,9.162,4.528,10.93l41.2,17.066  c17.983,50.302,17.983,105.253,0,155.555L9.63,348.999c-4.269,1.768-6.297,6.663-4.528,10.93c1.334,3.221,4.448,5.167,7.732,5.167  c1.066,0,2.152-0.205,3.198-0.639l36.739-15.218c48.284,22.854,87.141,61.71,109.994,109.994l-6.52,15.74  c-1.769,4.269,0.258,9.162,4.528,10.93c1.046,0.434,2.131,0.639,3.198,0.639c3.282,0,6.397-1.945,7.732-5.167l6.52-15.74  c50.304-17.984,105.252-17.984,155.556,0l8.872,21.419c1.334,3.221,4.448,5.167,7.732,5.167c1.066,0,2.152-0.205,3.198-0.639  c4.269-1.768,6.297-6.663,4.528-10.93l-8.872-21.42c22.853-48.284,61.71-87.14,109.994-109.994l41.201,17.066  c1.046,0.434,2.132,0.639,3.198,0.639c3.283,0,6.397-1.945,7.732-5.167C513.132,357.508,511.104,352.614,506.835,350.846z   M445.316,325.365l-38.212-15.828c-6.907-35.547-6.907-71.52,0-107.067l38.212-15.828  C432.106,231.941,432.106,280.065,445.316,325.365z M295.466,182.589c10.51,12.081,21.868,23.44,33.95,33.951l-57.956,24.007  L295.466,182.589z M256.002,234.144l-24.022-57.994c8.006,0.551,16.042,0.84,24.022,0.84c7.98,0,16.017-0.289,24.022-0.84  L256.002,234.144z M240.544,240.545l-57.956-24.007c12.082-10.51,23.441-21.868,33.951-33.951L240.544,240.545z M234.14,256.003  l-57.956,24.007c1.112-15.975,1.112-32.037,0-48.012L234.14,256.003z M240.544,271.461l-24.007,57.956  c-10.509-12.08-21.867-23.439-33.951-33.951L240.544,271.461z M256.002,277.863l24.022,57.994c-8.007-0.551-16.043-0.84-24.022-0.84  c-7.979,0-16.016,0.289-24.022,0.84L256.002,277.863z M271.459,271.461l57.956,24.007c-12.084,10.512-23.442,21.869-33.951,33.951  L271.459,271.461z M277.863,256.003l57.956-24.007c-1.112,15.975-1.112,32.037,0,48.012L277.863,256.003z M346.818,209.33  c-16.065-13.266-30.879-28.08-44.144-44.144l14.731-35.563c18.212,24.994,39.982,46.764,64.976,64.976L346.818,209.33z   M287.227,158.756c-10.369,0.976-20.847,1.5-31.227,1.5c-10.38,0-20.857-0.524-31.226-1.5l-14.719-35.536  c30.318,4.707,61.574,4.707,91.891,0L287.227,158.756z M209.329,165.187c-13.265,16.064-28.079,30.878-44.144,44.144L129.623,194.6  c24.994-18.213,46.764-39.982,64.976-64.976L209.329,165.187z M158.783,224.789c1.979,20.739,1.979,41.69,0,62.428l-35.563,14.731  c4.795-30.551,4.795-61.338,0-91.889L158.783,224.789z M165.186,302.675c16.067,13.268,30.881,28.082,44.144,44.144l-14.731,35.564  c-18.212-24.994-39.982-46.764-64.976-64.977L165.186,302.675z M224.775,353.25c10.37-0.976,20.848-1.5,31.227-1.5  c10.379,0,20.857,0.524,31.227,1.5l14.718,35.532c-15.158-2.359-30.548-3.571-45.945-3.571s-30.787,1.211-45.944,3.571  L224.775,353.25z M302.674,346.819c13.263-16.061,28.077-30.875,44.144-44.144l35.563,14.731  c-24.994,18.213-46.764,39.982-64.976,64.976L302.674,346.819z M353.22,287.216c-1.979-20.739-1.979-41.689,0-62.428l35.563-14.731  c-4.795,30.551-4.795,61.338,0,91.889L353.22,287.216z M438.913,171.183l-38.212,15.828c-30.019-20.252-55.455-45.689-75.707-75.707  l15.828-38.213C363.51,114.464,397.539,148.493,438.913,171.183z M325.364,66.689l-15.834,38.225  c-35.118,6.798-71.941,6.798-107.058,0l-15.834-38.226C231.938,79.9,280.064,79.9,325.364,66.689z M171.182,73.091l15.828,38.213  c-20.252,30.019-45.689,55.455-75.709,75.707l-38.213-15.828C114.463,148.493,148.492,114.465,171.182,73.091z M66.687,186.641  l38.212,15.828c6.907,35.547,6.907,71.52,0,107.067l-38.212,15.828C79.899,280.065,79.899,231.941,66.687,186.641z M73.09,340.822  l38.213-15.828c30.019,20.252,55.455,45.689,75.709,75.709l-15.828,38.213C148.493,397.542,114.464,363.513,73.09,340.822z   M256.002,435.404c-23.357,0-46.713,3.308-69.363,9.914l15.834-38.226c35.113-6.796,71.944-6.796,107.057,0l15.834,38.226  C302.714,438.713,279.359,435.404,256.002,435.404z M340.821,438.916l-15.828-38.213c20.252-30.019,45.689-55.455,75.709-75.707  l38.213,15.828C397.54,363.513,363.511,397.542,340.821,438.916z"/>
<g>
</g>
<g>
</g>
<g>
</g>
<g>
</g>
<g>
</g>
<g>
</g>
<g>
</g>
<g>
</g>
<g>
</g>
<g>
</g>
<g>
</g>
<g>
</g>
<g>
</g>
<g>
</g>
<g>
</g>
</svg>
