<?xml version="1.0"?>
<svg xmlns="http://www.w3.org/2000/svg" xmlns:xlink="http://www.w3.org/1999/xlink" enable-background="new 0 0 24 24" id="Layer_1" version="1.1" viewBox="0 0 24 24" xml:space="preserve" width="500" height="500"><g><path d="M23.8535156,4.1464844l-4-4c-0.1953125-0.1953125-0.5117188-0.1953125-0.7070312,0   s-0.1953125,0.5117188,0,0.7070312L19.7929688,1.5l-2.5859375,2.5859375l-1.6464844-1.6464844   c-0.5839844-0.5849609-1.5371094-0.5849609-2.1210938,0c-0.5849609,0.5849609-0.5849609,1.5361328,0,2.1210938l0.6464844,0.6464844   l-9.9394531,9.9394531C4.0527344,15.2402344,4,15.3671875,4,15.5c0,0.0808105,0.0166016,1.7897949,0.8305664,2.9624023   l-4.684082,4.684082c-0.1953125,0.1953125-0.1953125,0.5117188,0,0.7070312C0.2441406,23.9511719,0.3720703,24,0.5,24   s0.2558594-0.0488281,0.3535156-0.1464844l4.6836548-4.6836548C6.7056274,19.9822388,8.4108887,20,8.5,20   c0.1328125,0,0.2597656-0.0527344,0.3535156-0.1464844l9.9394531-9.9394531l0.6464844,0.6464844   C19.7226562,10.84375,20.0996094,11,20.5,11s0.7773438-0.15625,1.0605469-0.4394531   c0.5849609-0.5849609,0.5849609-1.5361328,0-2.1210938l-1.6464844-1.6464844L22.5,4.2070312l0.6464844,0.6464844   C23.2441406,4.9511719,23.3720703,5,23.5,5s0.2558594-0.0488281,0.3535156-0.1464844   C24.0488281,4.6582031,24.0488281,4.3417969,23.8535156,4.1464844z" fill="#303C42"/><path d="M8.3007812,18.9921875c-0.4921875-0.0302124-1.7710571-0.1721802-2.4439697-0.8406982   c-0.0014648-0.0014648-0.0018311-0.00354-0.0032959-0.0050049c-0.0014038-0.0014038-0.0033569-0.00177-0.0047607-0.0031738   c-0.6672974-0.6744995-0.81073-1.9524536-0.8409424-2.4440918l5.6956177-5.6956177   c1.5380859,0.0187988,2.3308716,0.2404175,3.1588745,0.477356c0.6792603,0.1937256,1.378479,0.3921509,2.4732056,0.4765015   L15,12.2929688l-1.1464844-1.1464844c-0.1953125-0.1953125-0.5117188-0.1953125-0.7070312,0s-0.1953125,0.5117188,0,0.7070312   L14.2929688,13L12.5,14.7929688l-0.6464844-0.6464844c-0.1953125-0.1953125-0.5117188-0.1953125-0.7070312,0   s-0.1953125,0.5117188,0,0.7070312L11.7929688,15.5L10,17.2929688l-1.1464844-1.1464844   c-0.1953125-0.1953125-0.5117188-0.1953125-0.7070312,0s-0.1953125,0.5117188,0,0.7070312L9.2929688,18L8.3007812,18.9921875z" fill="#87ADDB"/><path d="M6.8994141,18.6011353c-0.0015869-0.0015869-0.0019531-0.0037842-0.00354-0.0053101   c-0.0014648-0.0014648-0.00354-0.0018921-0.0050049-0.0033569C6.18396,17.8804321,6.0319824,16.5314331,6,16.0124512   l5.9555664-5.9346924c-0.3614502-0.0404663-0.7667236-0.0682373-1.2521362-0.0741577l-5.6956177,5.6956177   c0.0302124,0.4916382,0.173645,1.7695923,0.8409424,2.4440918c0.0014038,0.0014038,0.0033569,0.00177,0.0047607,0.0031738   c0.0014648,0.0014648,0.0018311,0.00354,0.0032959,0.0050049c0.340271,0.3380737,0.8352051,0.5408936,1.3053589,0.663269   C7.0687256,18.7492676,6.9789429,18.6798706,6.8994141,18.6011353z" fill="#FFFFFF" opacity="0.2"/><path d="M17.2965698,9.9963989c-1.5380859-0.0187988-2.3308716-0.2404175-3.1588745-0.477356   c-0.6792603-0.1937256-1.378479-0.3921509-2.4732056-0.4765015l3.128479-3.128479l3.2929688,3.2929688L17.2965698,9.9963989z" fill="#FAFAFA"/><path d="M20.8535156,9.8535156c-0.1894531,0.1884766-0.5175781,0.1884766-0.7070312,0l-6-6   c-0.1953125-0.1948242-0.1953125-0.512207,0-0.7070312C14.2441406,3.0488281,14.3720703,3.0004883,14.5,3.0004883   s0.2558594,0.0483398,0.3535156,0.1459961l6,6C21.0488281,9.3413086,21.0488281,9.6586914,20.8535156,9.8535156z" fill="#FAFAFA"/><rect fill="#FAFAFA" height="1.8285339" transform="matrix(0.7071068 -0.7071068 0.7071068 0.7071068 2.8829529 15.2530327)" width="3.6570678" x="18.0249825" y="3.2322173"/><linearGradient gradientUnits="userSpaceOnUse" id="SVGID_1_" x1="6.1482635" x2="19.0265312" y1="10.2039061" y2="16.2091408"><stop offset="0" style="stop-color:#FFFFFF;stop-opacity:0.2"/><stop offset="1" style="stop-color:#FFFFFF;stop-opacity:0"/></linearGradient><path d="M23.8535156,4.1464844l-4-4c-0.1953125-0.1953125-0.5117188-0.1953125-0.7070312,0   s-0.1953125,0.5117188,0,0.7070312L19.7929688,1.5l-2.5859375,2.5859375l-1.6464844-1.6464844   c-0.5839844-0.5849609-1.5371094-0.5849609-2.1210938,0c-0.5849609,0.5849609-0.5849609,1.5361328,0,2.1210938l0.6464844,0.6464844   l-9.9394531,9.9394531C4.0527344,15.2402344,4,15.3671875,4,15.5c0,0.0808105,0.0166016,1.7897949,0.8305664,2.9624023   l-4.684082,4.684082c-0.1953125,0.1953125-0.1953125,0.5117188,0,0.7070312C0.2441406,23.9511719,0.3720703,24,0.5,24   s0.2558594-0.0488281,0.3535156-0.1464844l4.6836548-4.6836548C6.7056274,19.9822388,8.4108887,20,8.5,20   c0.1328125,0,0.2597656-0.0527344,0.3535156-0.1464844l9.9394531-9.9394531l0.6464844,0.6464844   C19.7226562,10.84375,20.0996094,11,20.5,11s0.7773438-0.15625,1.0605469-0.4394531   c0.5849609-0.5849609,0.5849609-1.5361328,0-2.1210938l-1.6464844-1.6464844L22.5,4.2070312l0.6464844,0.6464844   C23.2441406,4.9511719,23.3720703,5,23.5,5s0.2558594-0.0488281,0.3535156-0.1464844   C24.0488281,4.6582031,24.0488281,4.3417969,23.8535156,4.1464844z" fill="url(#SVGID_1_)"/></g><g/><g/><g/><g/><g/><g/><g/><g/><g/><g/><g/><g/><g/><g/><g/></svg>
