<?xml version="1.0" encoding="utf-8"?>
<!-- Generator: Adobe Illustrator 16.0.0, SVG Export Plug-In . SVG Version: 6.00 Build 0)  -->
<!DOCTYPE svg PUBLIC "-//W3C//DTD SVG 1.1//EN" "http://www.w3.org/Graphics/SVG/1.1/DTD/svg11.dtd">
<svg xmlns="http://www.w3.org/2000/svg" xmlns:xlink="http://www.w3.org/1999/xlink" version="1.1" id="Layer_1" x="0px" y="0px" width="500" height="500" viewBox="0 0 512 512" enable-background="new 0 0 512 512" xml:space="preserve">
<g id="necromancy_book">
	<path fill="#656D78" d="M96.003,0.002c-23.531,0-42.671,19.14-42.671,42.671v383.992c0,5.891,4.766,10.672,10.672,10.672h53.327   V0.002H96.003z"/>
	<path fill="#E6E9ED" d="M96.003,394.665c-17.687,0-31.999,14.328-31.999,32s14.312,31.999,31.999,31.999h351.993v-63.999H96.003z"/>
	<path fill="#AC92EB" d="M458.652,10.673c0-5.89-4.781-10.671-10.656-10.671H117.331v21.335l0,0v362.656l0,0v21.344h119.263h211.402   c5.875,0,10.656-4.781,10.656-10.672l0,0V10.673L458.652,10.673z"/>
	<g>
		<path fill="#CCD1D9" d="M192.001,437.337h-85.342c-5.875,0-10.656-4.781-10.656-10.672s4.781-10.671,10.656-10.671h85.342    c5.891,0,10.656,4.78,10.656,10.671S197.892,437.337,192.001,437.337z"/>
	</g>
	<path fill="#CCD1D9" d="M362.652,415.994c-5.875,0-10.656,4.78-10.656,10.671s4.781,10.672,10.656,10.672h85.344v-21.343H362.652z"/>
	<path fill="#434A54" d="M64.004,85.336c5.89,0,10.656-4.773,10.656-10.664c0-5.89-4.766-10.671-10.656-10.671H53.333v21.335H64.004   z"/>
	<path fill="#434A54" d="M64.004,149.334c5.89,0,10.656-4.773,10.656-10.664s-4.766-10.672-10.656-10.672H53.333v21.335H64.004z"/>
	<path fill="#434A54" d="M64.004,213.333c5.89,0,10.656-4.773,10.656-10.664s-4.766-10.671-10.656-10.671H53.333v21.335H64.004z"/>
	<path fill="#434A54" d="M64.004,277.34c5.89,0,10.656-4.781,10.656-10.679c0-5.891-4.766-10.672-10.656-10.672H53.333v21.351   H64.004z"/>
	<path fill="#434A54" d="M64.004,341.339c5.89,0,10.656-4.781,10.656-10.672s-4.766-10.672-10.656-10.672H53.333v21.344H64.004z"/>
	<path fill="#AC92EB" d="M458.652,458.664c0-5.89-4.781-10.671-10.656-10.671H236.594H117.331v21.343h330.665   C453.871,469.336,458.652,464.555,458.652,458.664z"/>
	<path fill="#656D78" d="M117.331,447.993H96.003c-11.765,0-21.343-9.562-21.343-21.328c0-11.765,9.578-21.328,21.343-21.328h21.328   v-21.344H96.003c-23.531,0-42.671,19.141-42.671,42.672s19.14,42.671,42.671,42.671h21.328V447.993z"/>
	<path fill="#ED5564" d="M181.33,426.665h-10.672h-42.655h-10.671h-10.672v74.67c0,3.422,1.656,6.641,4.438,8.656   c2.781,2,6.359,2.547,9.609,1.453l28.624-9.531l28.625,9.531c1.109,0.375,2.234,0.547,3.375,0.547c2.203,0,4.391-0.688,6.234-2   c2.781-2.016,4.438-5.234,4.438-8.656v-74.67H181.33z"/>
	<path fill="#E6E9ED" d="M351.996,149.334c0-41.241-33.436-74.67-74.67-74.67c-41.232,0-74.669,33.429-74.669,74.67   c0,25.367,12.672,47.78,32,61.272v34.718h85.341v-34.718C339.342,197.115,351.996,174.701,351.996,149.334z"/>
	<path fill="#434A54" d="M256,149.334c0,5.891-4.765,10.664-10.656,10.664s-10.671-4.773-10.671-10.664   c0-5.89,4.781-10.671,10.671-10.671S256,143.444,256,149.334z"/>
	<path fill="#434A54" d="M319.232,149.334c0,5.891-4.781,10.664-10.672,10.664s-10.656-4.773-10.656-10.664   c0-5.89,4.766-10.671,10.656-10.671S319.232,143.444,319.232,149.334z"/>
	<path fill="#FFCE54" d="M458.652,394.665v-31.999c-42.656,0.016-42.656,42.671-42.656,42.671h32   C453.871,405.337,458.652,400.556,458.652,394.665z"/>
	<path fill="#FFCE54" d="M447.996,0.002h-32c0,42.656,42.672,42.656,42.672,42.656v-32C458.668,4.783,453.887,0.002,447.996,0.002z"/>
	<g>
		<path fill="#434A54" d="M362.668,309.339H192.001c-5.891,0-10.656-4.781-10.656-10.671c0-5.891,4.766-10.656,10.656-10.656    h170.667c5.891,0,10.672,4.766,10.672,10.656C373.34,304.558,368.559,309.339,362.668,309.339z"/>
	</g>
	<g>
		<path fill="#434A54" d="M319.998,351.994h-85.326c-5.891,0-10.672-4.765-10.672-10.655s4.781-10.672,10.672-10.672h85.326    c5.891,0,10.672,4.781,10.672,10.672S325.889,351.994,319.998,351.994z"/>
	</g>
	<path fill="#CCD1D9" d="M272,234.661c0-5.89-4.781-10.663-10.672-10.663s-10.672,4.773-10.672,10.663v10.664H272V234.661z"/>
	<path fill="#CCD1D9" d="M293.326,223.998c-5.891,0-10.672,4.773-10.672,10.663v10.664h21.344v-10.664   C303.998,228.771,299.217,223.998,293.326,223.998z"/>
</g>
</svg>
