<?xml version="1.0" encoding="iso-8859-1"?>
<!-- Generator: Adobe Illustrator 19.0.0, SVG Export Plug-In . SVG Version: 6.00 Build 0)  -->
<svg xmlns="http://www.w3.org/2000/svg" xmlns:xlink="http://www.w3.org/1999/xlink" version="1.1" id="Layer_1" x="0px" y="0px" viewBox="0 0 512 512" style="enable-background:new 0 0 512 512;" xml:space="preserve" width="500" height="500">
<g>
	<path style="fill:#8A8791;" d="M419.137,345.098v67.235c0,0.177,53.961,0.53,53.961,0.53v-67.765H419.137z"/>
	<path style="fill:#8A8791;" d="M92.863,412.333v-67.235H38.902v67.765C38.902,412.863,92.863,412.51,92.863,412.333z"/>
</g>
<g>
	<polygon style="fill:#C7C5CC;" points="42.667,345.098 42.667,332.549 0,332.549 0,425.412 42.667,425.412 42.667,412.863  "/>
	<polygon style="fill:#C7C5CC;" points="469.333,332.549 469.333,345.098 469.333,412.863 469.333,425.412 512,425.412 512,332.549     "/>
</g>
<path style="fill:#00D8DE;" d="M80.314,277.333v109.902c0,68.213,55.297,123.51,123.51,123.51h104.353  c68.213,0,123.51-55.297,123.51-123.51V277.333H80.314z"/>
<g>
	<circle style="fill:#20272E;" cx="172.185" cy="357.622" r="15.683"/>
	<circle style="fill:#20272E;" cx="339.815" cy="357.622" r="15.683"/>
	<path style="fill:#20272E;" d="M200.784,387.765c0,15.359,6.276,29.249,16.397,39.258c8.481-7.413,22.701-12.277,38.819-12.277   s30.337,4.864,38.819,12.277c10.121-10.009,16.397-23.9,16.397-39.258H200.784z"/>
</g>
<path style="fill:#FFA5B7;" d="M294.819,427.023c-8.481-7.413-22.701-12.277-38.819-12.277s-30.337,4.864-38.819,12.277  c9.975,9.862,23.684,15.957,38.819,15.957S284.845,436.885,294.819,427.023z"/>
<path style="fill:#3C3A41;" d="M425.682,131.285L425.682,131.285C405.581,56.395,337.236,1.255,256,1.255l0,0  c-81.235,0-149.581,55.14-169.682,130.03l-0.144,0.526c-3.821,14.4-5.86,29.527-5.86,45.13v138.194  C189.247,262.211,256,332.549,256,332.549s66.753-70.339,175.686-17.414V176.941C431.686,161.147,429.591,145.846,425.682,131.285z"/>
<g>
	<path style="fill:#EEE5DD;" d="M188.953,85.149c-8.543-5.923-20.27-3.799-26.194,4.745l-45.535,65.68   c-3.991,5.756-4.455,13.252-1.207,19.456c3.249,6.204,9.673,10.093,16.676,10.093h9.581l-25.05,36.132   c-3.991,5.755-4.455,13.251-1.207,19.455c3.249,6.204,9.673,10.092,16.676,10.092h9.581l-25.05,36.132   c-3.164,4.563-4.011,10.029-2.831,15.039c15.347-4.376,29.623-6.315,42.746-6.536l36.56-52.735   c3.991-5.755,4.455-13.251,1.207-19.455c-3.249-6.204-9.673-10.093-16.676-10.093h-9.581l25.05-36.132   c3.991-5.755,4.455-13.251,1.207-19.455c-3.249-6.204-9.673-10.092-16.676-10.092h-9.581l25.05-36.132   C199.621,102.799,197.498,91.071,188.953,85.149z"/>
	<path style="fill:#EEE5DD;" d="M323.047,85.149c8.543-5.923,20.27-3.799,26.194,4.745l45.535,65.68   c3.991,5.756,4.455,13.252,1.207,19.456c-3.249,6.204-9.673,10.093-16.676,10.093h-9.581l25.05,36.132   c3.991,5.755,4.455,13.251,1.207,19.455c-3.249,6.204-9.673,10.092-16.676,10.092h-9.581l25.05,36.132   c3.164,4.563,4.011,10.029,2.831,15.039c-15.347-4.376-29.623-6.315-42.746-6.536l-36.56-52.735   c-3.991-5.755-4.455-13.251-1.207-19.455c3.249-6.204,9.673-10.093,16.676-10.093h9.581l-25.05-36.132   c-3.991-5.755-4.455-13.251-1.207-19.455c3.249-6.204,9.673-10.092,16.676-10.092h9.581l-25.05-36.132   C312.379,102.799,314.504,91.071,323.047,85.149z"/>
</g>
<path style="opacity:0.3;fill:#20272E;enable-background:new    ;" d="M469.333,332.549v12.549h-37.647v-29.963v-37.801V176.941  c0-15.794-2.096-31.095-6.005-45.656l0,0C405.581,56.395,337.236,1.255,256,1.255l0,0v509.49h52.176  c59.551,0,109.254-42.146,120.917-98.237c12.125,0.132,31.999,0.274,40.24,0.33v0.025v12.549H512v-92.863H469.333z"/>
<g>
</g>
<g>
</g>
<g>
</g>
<g>
</g>
<g>
</g>
<g>
</g>
<g>
</g>
<g>
</g>
<g>
</g>
<g>
</g>
<g>
</g>
<g>
</g>
<g>
</g>
<g>
</g>
<g>
</g>
</svg>
