<?xml version="1.0"?>
<svg xmlns="http://www.w3.org/2000/svg" width="500" height="500" viewBox="0 0 85.333 85.333"><defs><clipPath id="a" clipPathUnits="userSpaceOnUse"><path d="M 120,610 H 520 V 30 H 120 Z"/></clipPath><clipPath id="b" clipPathUnits="userSpaceOnUse"><path d="m 306.871,258.094 c -8.992,-6.403 -19.992,-10.168 -31.871,-10.168 -30.375,0 -55,24.625 -55,55 0,33.738 30.426,38.996 52.816,62.547 C 299.93,393.992 319.922,420 320,420 c 0.078,0 20.074,-26.012 47.188,-54.531 C 389.574,341.922 420,336.664 420,302.926 c 0,-30.375 -24.625,-55 -55,-55 -11.879,0 -22.879,3.765 -31.871,10.168 L 340,210 h -40 z" style="clip-rule:evenodd"/></clipPath><clipPath id="c" clipPathUnits="userSpaceOnUse"><path d="M 0,0 H 640 V 640 H 0 Z"/></clipPath><clipPath id="d" clipPathUnits="userSpaceOnUse"><path d="M 191.238,514.867 C 187.949,511.82 183.781,510 179.25,510 168.617,510 160,520.016 160,532.375 c 0,13.723 10.648,15.863 18.484,25.445 9.493,11.598 16.489,22.18 16.516,22.18 0.027,0 7.027,-10.582 16.516,-22.184 C 219.352,548.238 230,546.098 230,532.375 230,520.016 221.383,510 210.75,510 c -4.531,0 -8.699,1.82 -11.988,4.867 L 200,500 h -10 z" style="clip-rule:evenodd"/></clipPath><clipPath id="e" clipPathUnits="userSpaceOnUse"><path d="M 0,0 H 640 V 640 H 0 Z"/></clipPath><clipPath id="f" clipPathUnits="userSpaceOnUse"><path d="M 451.238,74.8672 C 447.949,71.8203 443.781,70 439.25,70 428.617,70 420,80.0156 420,92.375 c 0,13.723 10.648,15.863 18.484,25.445 9.493,11.598 16.489,22.18 16.516,22.18 0.027,0 7.027,-10.582 16.516,-22.184 C 479.352,108.238 490,106.098 490,92.375 490,80.0156 481.383,70 470.75,70 c -4.531,0 -8.699,1.8203 -11.988,4.8672 L 460,60 h -10 z" style="clip-rule:evenodd"/></clipPath><clipPath id="g" clipPathUnits="userSpaceOnUse"><path d="M 0,0 H 640 V 640 H 0 Z"/></clipPath></defs><g transform="matrix(1.3333333,0,0,-1.3333333,0,85.333333)"><g transform="scale(0.1)"><g><g clip-path="url(#a)"><path d="M 70,0 H 570 V 660 H 70 Z" style="fill:#585858;fill-opacity:1;fill-rule:nonzero;stroke:none"/></g></g><g><g clip-path="url(#b)"><g clip-path="url(#c)"><path d="M 170,160 H 470 V 470 H 170 Z" style="fill:#fff;fill-opacity:1;fill-rule:nonzero;stroke:none"/></g></g></g><g><g clip-path="url(#d)"><g clip-path="url(#e)"><path d="M 110,450 H 280 V 630 H 110 Z" style="fill:#fff;fill-opacity:1;fill-rule:nonzero;stroke:none"/></g></g></g><g><g clip-path="url(#f)"><g clip-path="url(#g)"><path d="M 370,10 H 540 V 190 H 370 Z" style="fill:#fff;fill-opacity:1;fill-rule:nonzero;stroke:none"/></g></g></g></g></g></svg>
