<?xml version="1.0"?>
<svg xmlns="http://www.w3.org/2000/svg" width="500" height="500" viewBox="0 0 85.333 85.333"><defs><clipPath id="a" clipPathUnits="userSpaceOnUse"><path d="M 120,610 H 520 V 30 H 120 Z"/></clipPath><clipPath id="b" clipPathUnits="userSpaceOnUse"><path d="M 319.438,420 399.684,314.172 319.438,209.48 240,314.172 Z" style="clip-rule:evenodd"/></clipPath><clipPath id="c" clipPathUnits="userSpaceOnUse"><path d="M 0,0 H 640 V 640 H 0 Z"/></clipPath><clipPath id="d" clipPathUnits="userSpaceOnUse"><path d="M 170.188,590 200.68,549.785 170.188,510 140,549.785 Z" style="clip-rule:evenodd"/></clipPath><clipPath id="e" clipPathUnits="userSpaceOnUse"><path d="M 0,0 H 640 V 640 H 0 Z"/></clipPath><clipPath id="f" clipPathUnits="userSpaceOnUse"><path d="M 470.188,130 500.68,89.7852 470.188,50 440,89.7852 Z" style="clip-rule:evenodd"/></clipPath><clipPath id="g" clipPathUnits="userSpaceOnUse"><path d="M 0,0 H 640 V 640 H 0 Z"/></clipPath></defs><g transform="matrix(1.3333333,0,0,-1.3333333,0,85.333333)"><g transform="scale(0.1)"><g><g clip-path="url(#a)"><path d="M 70,0 H 570 V 660 H 70 Z" style="fill:#e53433;fill-opacity:1;fill-rule:nonzero;stroke:none"/></g></g><g><g clip-path="url(#b)"><g clip-path="url(#c)"><path d="M 190,159.48 H 449.684 V 470 H 190 Z" style="fill:#fff;fill-opacity:1;fill-rule:nonzero;stroke:none"/></g></g></g><g><g clip-path="url(#d)"><g clip-path="url(#e)"><path d="M 90,460 H 250.68 V 640 H 90 Z" style="fill:#fff;fill-opacity:1;fill-rule:nonzero;stroke:none"/></g></g></g><g><g clip-path="url(#f)"><g clip-path="url(#g)"><path d="M 390,0 H 550.68 V 180 H 390 Z" style="fill:#fff;fill-opacity:1;fill-rule:nonzero;stroke:none"/></g></g></g></g></g></svg>
