<?xml version="1.0" encoding="iso-8859-1"?>
<!-- Generator: Adobe Illustrator 19.0.0, SVG Export Plug-In . SVG Version: 6.00 Build 0)  -->
<svg xmlns="http://www.w3.org/2000/svg" xmlns:xlink="http://www.w3.org/1999/xlink" version="1.1" id="Layer_1" x="0px" y="0px" viewBox="0 0 512.001 512.001" style="enable-background:new 0 0 512.001 512.001;" xml:space="preserve" width="500" height="500">
<g>
	<circle style="fill:#00C279;" cx="164.407" cy="137.617" r="34.344"/>
	<circle style="fill:#00C279;" cx="205.918" cy="30.414" r="24.388"/>
	<circle style="fill:#00C279;" cx="275.881" cy="131.701" r="24.388"/>
</g>
<path style="fill:#664B33;" d="M360.233,219.377L460.399,48.162c7.103-12.962,2.354-29.228-10.609-36.331  c-12.962-7.103-29.228-2.354-36.331,10.609l-114.26,196.937H360.233z"/>
<g>
	<path style="fill:#B857D0;" d="M95.22,416.059l-3.945,63.592c-1.335,21.524,23.593,34.329,40.312,20.707l44.909-36.593   L95.22,416.059z"/>
	<path style="fill:#B857D0;" d="M420.727,479.651l-3.945-63.592l-81.274,47.705l44.909,36.593   C397.133,513.979,422.062,501.175,420.727,479.651z"/>
</g>
<path style="fill:#A93CCB;" d="M27.488,234.871v25.056l0,0c0,118.111,95.748,213.859,213.859,213.859h29.307  c118.111,0,213.859-95.748,213.859-213.859l0,0v-25.056H27.488z"/>
<path style="fill:#B857D0;" d="M484.512,204.952H27.488C12.307,204.952,0,217.258,0,232.44l0,0  c0,15.182,12.307,27.488,27.488,27.488h457.024c15.182,0,27.488-12.307,27.488-27.488l0,0  C512,217.258,499.693,204.952,484.512,204.952z"/>
<g>
	<path style="opacity:0.3;fill:#20272E;enable-background:new    ;" d="M482.216,291.292c1.504-10.239,2.296-20.709,2.296-31.366   H27.488c0,10.656,0.792,21.127,2.296,31.366H482.216z"/>
	<path style="opacity:0.3;fill:#20272E;enable-background:new    ;" d="M484.512,204.952H255.999v268.834h14.653   c22.61,0,44.396-3.52,64.853-10.023l0,0l44.909,36.593c16.718,13.622,41.647,0.817,40.312-20.707l-3.945-63.592   c41.678-39.023,67.732-94.53,67.732-156.131l0,0c15.182,0,27.488-12.307,27.488-27.488l0,0   C512,217.258,499.693,204.952,484.512,204.952z"/>
</g>
<g>
</g>
<g>
</g>
<g>
</g>
<g>
</g>
<g>
</g>
<g>
</g>
<g>
</g>
<g>
</g>
<g>
</g>
<g>
</g>
<g>
</g>
<g>
</g>
<g>
</g>
<g>
</g>
<g>
</g>
</svg>
