<?xml version="1.0" encoding="iso-8859-1"?>
<!-- Generator: Adobe Illustrator 19.0.0, SVG Export Plug-In . SVG Version: 6.00 Build 0)  -->
<svg xmlns="http://www.w3.org/2000/svg" xmlns:xlink="http://www.w3.org/1999/xlink" version="1.1" id="Layer_1" x="0px" y="0px" viewBox="0 0 512 512" style="enable-background:new 0 0 512 512;" xml:space="preserve" width="500" height="500">
<path style="fill:#F95428;" d="M431.559,10.456c6.977,6.977,10.466,16.117,10.466,25.257c0,8.996-3.381,17.993-10.155,24.922  l-35.486-11.603L381.38,10.146C395.346-3.487,417.724-3.379,431.559,10.456z"/>
<path style="fill:#666666;" d="M431.87,60.636c-0.096,0.119-0.203,0.227-0.311,0.335L315.997,176.532l-50.502-50.502L381.057,10.456  c0.108-0.108,0.215-0.215,0.323-0.311L431.87,60.636z"/>
<path style="fill:#E6E6E6;" d="M331.511,161.018l77.109,77.109c-12.186,16.965-24.899,33.525-38.136,49.654  c-18.172,18.459-58.525,51.476-96.064,51.476c-40.621,0-61.774,23.28-80.389,61.631c-21.051,43.369-74.218-2.593-74.218-2.593v0.012  l-40.323-40.323c-12.688-12.688-12.688-33.262,0-45.95l201.518-201.518L331.511,161.018z M139.646,332.31  c0-8.578-6.953-15.532-15.532-15.532s-15.532,6.953-15.532,15.532s6.953,15.532,15.532,15.532S139.646,340.888,139.646,332.31z"/>
<g>
	<path style="fill:#F95428;" d="M284.82,328.857c37.539,0,67.491-22.617,85.663-41.075   c-51.804,63.202-111.374,119.738-177.36,168.233l-8.996,6.607l-64.313-64.313v-0.012c0,0,53.166,24.098,74.218-19.271   C212.645,340.673,244.199,328.857,284.82,328.857z"/>
	<path style="fill:#F95428;" d="M297.831,464.819c10.789,10.789,10.789,28.292,0,39.092c-5.4,5.388-12.473,8.088-19.546,8.088   s-14.146-2.7-19.546-8.088c-10.789-10.801-10.789-28.304,0-39.092l19.546-19.546L297.831,464.819z"/>
</g>
<path style="fill:#E54728;" d="M271.881,503.911c-10.789-10.801-10.789-28.304,0-39.092l6.404-6.404c3.63-3.63,3.63-9.513,0-13.142  l0,0l-19.546,19.546c-10.789,10.789-10.789,28.292,0,39.092c5.4,5.388,12.473,8.088,19.546,8.088c2.209,0,4.413-0.295,6.571-0.822  C280.106,510.019,275.594,507.616,271.881,503.911z"/>
<g>
	<circle style="fill:#F95428;" cx="336.728" cy="105.293" r="8.961"/>
	<circle style="fill:#F95428;" cx="377.888" cy="64.136" r="8.961"/>
</g>
<g>
</g>
<g>
</g>
<g>
</g>
<g>
</g>
<g>
</g>
<g>
</g>
<g>
</g>
<g>
</g>
<g>
</g>
<g>
</g>
<g>
</g>
<g>
</g>
<g>
</g>
<g>
</g>
<g>
</g>
</svg>
