<?xml version="1.0" encoding="utf-8"?>
<!-- Generator: Adobe Illustrator 16.0.0, SVG Export Plug-In . SVG Version: 6.00 Build 0)  -->
<!DOCTYPE svg PUBLIC "-//W3C//DTD SVG 1.1//EN" "http://www.w3.org/Graphics/SVG/1.1/DTD/svg11.dtd">
<svg xmlns="http://www.w3.org/2000/svg" xmlns:xlink="http://www.w3.org/1999/xlink" version="1.1" id="Layer_1" x="0px" y="0px" width="500" height="500" viewBox="0 0 512 512" enable-background="new 0 0 512 512" xml:space="preserve">
<g id="crystal">
	<g>
		<path fill="#D770AD" d="M430.996,343.346c-0.594-3.312-2.719-6.188-5.749-7.688l-86.343-42.905    c-5-2.469-11.062-0.688-13.905,4.094l-97.146,163.059c-2.773,4.656-1.609,10.656,2.711,13.938l40.335,30.655    c1.914,1.438,4.194,2.156,6.444,2.156c2.844,0,5.656-1.125,7.75-3.312l143.122-150.778    C430.559,350.095,431.59,346.689,430.996,343.346z"/>
		<path opacity="0.1" d="M377.325,323.752l-2.141-12.969l-36.28-18.03c-5-2.469-11.062-0.688-13.905,4.094l-97.146,163.059    c-2.773,4.656-1.609,10.656,2.711,13.938l25.476,19.375l26.304-33.219L377.325,323.752z"/>
		<g>
			<path fill="#EC87C0" d="M420.497,355.876c-1.625,0-3.25-0.375-4.75-1.125l-86.342-42.905c-3.75-1.844-6.062-5.719-5.906-9.906     c0.156-4.187,2.734-7.905,6.594-9.499l46.561-19.125c1.484-0.594,3.062-0.875,4.656-0.781l31.969,1.812     c5.125,0.281,9.312,4.188,9.984,9.25l7.796,60.249c0.516,3.905-1.172,7.78-4.375,10.062     C424.841,355.22,422.669,355.876,420.497,355.876z"/>
		</g>
		<path opacity="0.1" fill="#FFFFFF" d="M415.747,354.751c1.5,0.75,3.125,1.125,4.75,1.125c2.172,0,4.344-0.656,6.187-1.969    c3.203-2.281,4.891-6.156,4.375-10.062l-7.796-60.249c-0.141-1.094-0.484-2.156-0.938-3.156l-51.172,52.155L415.747,354.751z"/>
	</g>
	<g>
		<path fill="#D770AD" d="M59.7,343.346c0.586-3.312,2.727-6.188,5.758-7.688l86.326-42.905c5-2.469,11.062-0.688,13.914,4.094    l97.139,163.059c2.773,4.656,1.609,10.656-2.711,13.938l-40.335,30.655c-1.921,1.438-4.187,2.156-6.445,2.156    c-2.836,0-5.656-1.125-7.742-3.312L62.466,352.563C60.138,350.095,59.106,346.689,59.7,343.346z"/>
		<path opacity="0.1" d="M113.371,323.752l2.133-12.969l36.28-18.03c5-2.469,11.062-0.688,13.914,4.094l97.139,163.059    c2.773,4.656,1.609,10.656-2.711,13.938l-25.476,19.375l-26.312-33.219L113.371,323.752z"/>
		<g>
			<path fill="#EC87C0" d="M64.013,353.907c-3.211-2.281-4.898-6.156-4.391-10.062l7.812-60.249c0.656-5.062,4.852-8.969,9.977-9.25     l31.96-1.812c1.594-0.094,3.18,0.188,4.656,0.781l46.562,19.125c3.875,1.594,6.453,5.312,6.609,9.499     c0.148,4.188-2.164,8.062-5.914,9.906L74.95,354.751c-1.5,0.75-3.125,1.125-4.75,1.125     C68.02,355.876,65.849,355.22,64.013,353.907z"/>
		</g>
		<path opacity="0.1" fill="#FFFFFF" d="M74.95,354.751c-1.5,0.75-3.125,1.125-4.75,1.125c-2.18,0-4.351-0.656-6.187-1.969    c-3.211-2.281-4.898-6.156-4.391-10.062l7.812-60.249c0.141-1.094,0.469-2.156,0.93-3.156l51.171,52.155L74.95,354.751z"/>
	</g>
	<path fill="#FFCE54" d="M511.994,37.345c0,5.891-4.781,10.672-10.655,10.672c-5.906,0-10.688-4.781-10.688-10.672   s4.781-10.672,10.688-10.672C507.213,26.673,511.994,31.454,511.994,37.345z"/>
	<path fill="#5D9CEC" d="M469.34,421.344c0,5.875-4.781,10.656-10.688,10.656c-5.875,0-10.656-4.781-10.656-10.656   c0-5.905,4.781-10.688,10.656-10.688C464.559,410.656,469.34,415.438,469.34,421.344z"/>
	<path fill="#A0D468" d="M298.655,16.017c0,5.875-4.766,10.656-10.656,10.656s-10.656-4.781-10.656-10.656   c0-5.906,4.766-10.671,10.656-10.671S298.655,10.11,298.655,16.017z"/>
	<path fill="#AC92EB" d="M85.34,165.342c0,5.891-4.781,10.672-10.671,10.672s-10.664-4.781-10.664-10.672   s4.773-10.672,10.664-10.672S85.34,159.451,85.34,165.342z"/>
	<path fill="#ED5564" d="M21.341,357.345c0,5.875-4.781,10.656-10.672,10.656c-5.89,0-10.664-4.781-10.664-10.656   c0-5.906,4.773-10.687,10.664-10.687C16.56,346.658,21.341,351.438,21.341,357.345z"/>
	<path fill="#FC6E51" d="M32.005,37.345V26.673c0-5.891-4.773-10.656-10.664-10.656s-10.672,4.766-10.672,10.656v10.672   c-5.89,0-10.664,4.766-10.664,10.672c0,5.891,4.773,10.656,10.664,10.656v10.672c0,5.89,4.781,10.671,10.672,10.671   s10.664-4.781,10.664-10.671V58.673c5.891,0,10.665-4.766,10.665-10.656C42.669,42.11,37.896,37.345,32.005,37.345z"/>
	<path fill="#48CFAD" d="M437.34,165.342V154.67c0-5.891-4.781-10.655-10.687-10.655c-5.875,0-10.656,4.765-10.656,10.655v10.672   c-5.891,0-10.656,4.766-10.656,10.672c0,5.891,4.766,10.656,10.656,10.656v10.671c0,5.891,4.781,10.672,10.656,10.672   c5.905,0,10.687-4.781,10.687-10.672V186.67c5.875,0,10.656-4.766,10.656-10.656C447.996,170.107,443.215,165.342,437.34,165.342z"/>
	<path fill="#967ADC" d="M328.03,168.982c-2.031-2.312-4.953-3.641-8.031-3.641H170.666c-3.07,0-6,1.328-8.023,3.641   c-2.023,2.312-2.953,5.391-2.546,8.438l42.663,319.984c0.711,5.312,5.227,9.25,10.578,9.25h64.005c5.344,0,9.859-3.938,10.562-9.25   l42.656-319.984C330.968,174.373,330.046,171.295,328.03,168.982z"/>
	<path fill="#967ADC" d="M328.03,168.982c-2.031-2.312-4.953-3.641-8.031-3.641H170.666c-3.07,0-6,1.328-8.023,3.641   c-2.023,2.312-2.953,5.391-2.546,8.438l42.663,319.984c0.711,5.312,5.227,9.25,10.578,9.25h64.005c5.344,0,9.859-3.938,10.562-9.25   l42.656-319.984C330.968,174.373,330.046,171.295,328.03,168.982z"/>
	<g opacity="0.1">
		<path d="M245.336,165.342h-74.67c-3.07,0-6,1.328-8.023,3.641c-2.023,2.312-2.953,5.391-2.546,8.438l42.663,319.984    c0.711,5.312,5.227,9.25,10.578,9.25h31.999V165.342z"/>
	</g>
	<g>
		<path fill="#AC92EB" d="M319.999,186.67H170.666c-3.961,0-7.602-2.203-9.445-5.703c-1.843-3.516-1.578-7.766,0.672-11.031    l42.664-61.748c0.938-1.359,2.18-2.469,3.617-3.266l42.671-23.578c4.656-2.578,10.5-1.328,13.687,2.938l63.999,85.326    c2.438,3.234,2.812,7.562,1,11.172C327.733,184.389,324.03,186.67,319.999,186.67z"/>
	</g>
	<path opacity="0.1" fill="#FFFFFF" d="M329.53,180.779c1.812-3.609,1.438-7.938-1-11.172l-63.999-85.326   c-1.5-2.016-3.586-3.328-5.859-3.922L245.336,186.67h74.663C324.03,186.67,327.733,184.389,329.53,180.779z"/>
</g>
</svg>
