<?xml version="1.0"?>
<svg xmlns="http://www.w3.org/2000/svg" id="Layer_1" enable-background="new 0 0 512.156 512.156" height="500" viewBox="0 0 512.156 512.156" width="500"><g><path d="m358.25 358.951c85.399-55.909 136.985-141.176 151.861-168.152 2.868-5.2 2.713-11.532-.422-16.576-21.934-35.297-113.171-174.114-191.437-174.114-32.017 0-48.579 14.101-56.185 23.802-2.847 3.631-8.319 3.691-11.229.111-7.87-9.68-24.869-23.834-56.984-23.834-78.201 0-169.351 138.586-191.382 174.025-3.161 5.085-3.303 11.478-.357 16.69 14.606 25.845 63.985 105.434 149.824 168.048" fill="#9330a0"/><path d="m322.418 97.036c-45.883 0-65.865 25.22-65.865 25.22l-.002.001.001-.001s-19.981-25.22-65.865-25.22c-56.998 0-119.541 82.534-119.541 82.534s28.006 45.829 55.889 65.277l129.184-26.711 129.361 26.711c26.401-25.669 56.379-65.276 56.379-65.276s-62.543-82.535-119.541-82.535z" fill="#a20f59"/><g><path d="m85.676 362.688c-8.882 0-16.082-7.2-16.082-16.082v-160.247c0-8.882 7.2-16.082 16.082-16.082s16.082 7.2 16.082 16.082v160.247c.001 8.882-7.2 16.082-16.082 16.082z" fill="#ff4a4a"/></g><g><path d="m168.609 503.106c-8.882 0-16.082-7.2-16.082-16.082v-124.336c0-8.882 7.2-16.082 16.082-16.082s16.082 7.2 16.082 16.082v124.336c0 8.882-7.2 16.082-16.082 16.082z" fill="#ff4a4a"/></g><path d="m256.22 218.136-129.184 26.711s2.753 138.676 120.658 263.075c4.743 5.004 12.707 5.008 17.454.007 118.089-124.4 120.432-263.082 120.432-263.082-82.358-35.555-175.725-35.619-258.131-.177l-.413.178" fill="#ff7cb9"/><path d="m114.167 134.203c5.188 13.837 31.292 37.406 51.86 40.754 2.472.402 4.714-1.511 4.714-4.015v-70.822c-20.128 5.937-39.965 19.667-56.574 34.083z" fill="#fff"/><path d="m318.252.109c-32.017 0-48.579 14.101-56.185 23.802-1.406 1.793-3.452 2.711-5.514 2.754v332.285h101.697c85.399-55.909 136.985-141.176 151.861-168.152 2.868-5.2 2.713-11.532-.422-16.576-21.934-35.296-113.171-174.113-191.437-174.113z" fill="#4a1c7a"/><path d="m322.418 97.036c-45.883 0-65.865 25.22-65.865 25.22v95.949l129.027 26.642c26.4-25.669 56.379-65.276 56.379-65.276s-62.543-82.535-119.541-82.535z" fill="#840d47"/><path d="m256.553 218.134v293.537c3.133-.033 6.255-1.276 8.595-3.742 118.089-124.4 120.432-263.082 120.432-263.082-41.172-17.775-85.096-26.68-129.027-26.713z" fill="#ff5ca8"/><path d="m344.232 100.682c20.125 6.188 39.692 20.384 56.199 34.824-5.782 16.477-32.385 37.704-53.387 39.562-1.506.133-2.813-1.023-2.813-2.535z" fill="#f9f9f9"/><path d="m272.39 347.139v-125.936c0-.913-.094-1.803-.24-2.674-10.555-.513-21.128-.518-31.683-.005-.147.873-.241 1.764-.241 2.679v125.936c0 8.882 7.2 16.082 16.082 16.082s16.082-7.2 16.082-16.082z" fill="#ff3980"/><g><g><path d="m426.505 454.107c-8.535 0-15.454-6.919-15.454-15.454v-257.409c0-8.535 6.919-15.454 15.454-15.454s15.454 6.919 15.454 15.454v257.409c0 8.535-6.919 15.454-15.454 15.454z" fill="#c30047"/></g></g><circle cx="426.505" cy="496.593" fill="#c30047" r="15.454"/><path d="m256.553 218.141v145.065c8.768-.132 15.837-7.271 15.837-16.07v-125.936c0-.913-.094-1.803-.24-2.674-5.196-.253-10.396-.38-15.597-.385z" fill="#ff0059"/></g></svg>
