<?xml version="1.0"?>
<svg xmlns="http://www.w3.org/2000/svg" width="500" height="500" style="enable-background:new 0 0 512 512" viewBox="0 0 512 512"><path d="M340.455,48.099c0,25.998-20.627,47.166-46.397,48.062v60.644l-6.38-5.081l-31.684,25.216 l-31.671-25.216l-6.367,5.068V96.161c-25.783-0.895-46.397-22.064-46.397-48.062C171.559,21.534,193.093,0,219.658,0 c14.512,0,27.536,6.443,36.349,16.617c0.05-0.05,0.088-0.101,0.139-0.151c3.039-3.48,6.581-6.531,10.502-9.015 C274.087,2.736,282.9,0,292.356,0C318.921-0.013,340.455,21.534,340.455,48.099z" style="fill:#e6e6e6"/><g><path d="M252.511,112.299c-0.453-8.408-5.924-15.836-13.941-18.418 c-19.341-6.231-33.327-24.367-33.327-45.782c0-20.63,12.991-38.22,31.235-45.052c-6.57-2.457-13.808-3.543-21.379-2.833 c-23.278,2.184-41.861,21.229-43.429,44.556c-1.85,27.497,19.41,50.457,46.285,51.39v60.632l6.367-5.068l31.671,25.216 L252.511,112.299z" style="fill:#ccc"/><path d="M266.068,34.697c-1.967-6.808-5.396-12.999-9.922-18.206v-0.025 c3.039-3.48,6.581-6.531,10.502-9.015C270.746,22.883,266.068,34.697,266.068,34.697z" style="fill:#ccc"/></g><path d="M217.956,148.387l6.367-5.068l31.671,25.216l31.684-25.216l6.38,5.081l25.304,20.135l31.684-25.216 v273.643c0,26.237-10.641,50.003-27.838,67.2C306.01,501.359,282.257,512,256.007,512c-52.5,0-95.051-42.552-95.051-95.039V143.318 l31.684,25.216L217.956,148.387z" style="fill:#ffd3ae"/><path d="M216.605,416.961V149.462l-23.966,19.072l-31.684-25.216v273.643 c0,52.487,42.552,95.039,95.051,95.039c9.683,0,19.022-1.457,27.822-4.148C244.911,495.955,216.605,459.767,216.605,416.961z" style="fill:#e8b995"/><path d="M310.524,372.783L310.524,372.783H201.478l0,0h-7.048v44.178c0,27.221,17.765,50.381,42.3,58.488 c6.064,2.005,12.545,3.089,19.278,3.089c33.953,0,61.577-27.624,61.577-61.577v-44.178L310.524,372.783L310.524,372.783z" style="fill:#f95428"/><g><path d="M282.105,339.523h-52.21c-4.177,0-7.565-3.388-7.565-7.565s3.388-7.565,7.565-7.565h52.21 c4.177,0,7.565,3.388,7.565,7.565S286.282,339.523,282.105,339.523z" style="fill:#e8b995"/><path d="M282.105,198.302h-52.21c-4.177,0-7.565-3.388-7.565-7.565s3.388-7.565,7.565-7.565h52.21 c4.177,0,7.565,3.388,7.565,7.565S286.282,198.302,282.105,198.302z" style="fill:#e8b995"/><path d="M282.105,230.427h-52.21c-4.177,0-7.565-3.388-7.565-7.565c0-4.177,3.388-7.565,7.565-7.565h52.21 c4.177,0,7.565,3.388,7.565,7.565C289.67,227.039,286.282,230.427,282.105,230.427z" style="fill:#e8b995"/></g><path d="M201.478,372.783L201.478,372.783h-7.048v44.178c0,27.221,17.765,50.381,42.3,58.488 c-12.608-16.126-20.122-36.424-20.122-58.488v-25.502c10.689,8.919,24.43,14.294,39.4,14.294c23.627,0,44.203-13.377,54.517-32.97 L201.478,372.783L201.478,372.783z" style="fill:#e54728"/></svg>
