<?xml version="1.0" encoding="iso-8859-1"?>
<!-- Generator: Adobe Illustrator 19.0.0, SVG Export Plug-In . SVG Version: 6.00 Build 0)  -->
<svg xmlns="http://www.w3.org/2000/svg" xmlns:xlink="http://www.w3.org/1999/xlink" version="1.1" id="Layer_1" x="0px" y="0px" viewBox="0 0 512 512" style="enable-background:new 0 0 512 512;" xml:space="preserve" width="500" height="500">
<g>
	<rect x="43.077" y="324.923" style="fill:#8A8791;" width="45.538" height="66.462"/>
	<rect x="423.385" y="324.923" style="fill:#8A8791;" width="45.538" height="66.462"/>
</g>
<rect x="465.231" y="312.615" style="fill:#C7C5CC;" width="41.846" height="91.077"/>
<path style="fill:#00C279;" d="M422.418,127.53L422.418,127.53L422.418,127.53h-46.513l-0.604-0.711l-0.604,0.711h-46.512  l-0.603-0.711l-0.604,0.711h-46.513l-0.603-0.711l-0.604,0.711h-46.513l-0.604-0.711l-0.604,0.711h-46.513l-0.604-0.711  l-0.604,0.711H137.3l-0.604-0.711l-0.603,0.711H89.582l-0.142,0.516c-3.748,14.123-5.748,28.959-5.748,44.262v218.558  C83.692,457.766,137.926,512,204.827,512h102.346c66.901,0,121.135-54.234,121.135-121.135V172.308  C428.308,156.817,426.251,141.81,422.418,127.53z"/>
<rect x="4.923" y="312.615" style="fill:#C7C5CC;" width="41.846" height="91.077"/>
<g>
	<circle style="fill:#20272E;" cx="173.797" cy="349.514" r="15.381"/>
	<circle style="fill:#20272E;" cx="338.203" cy="349.514" r="15.381"/>
	<path style="fill:#20272E;" d="M201.846,379.077c0,15.063,6.155,28.687,16.081,38.503c8.318-7.27,22.265-12.041,38.073-12.041   s29.754,4.77,38.073,12.041c9.926-9.817,16.081-23.44,16.081-38.503H201.846z"/>
</g>
<path style="fill:#008678;" d="M348.805,236.923h-19.749v-12.124c0-5.098-4.132-9.231-9.231-9.231c-5.099,0-9.231,4.133-9.231,9.231  v12.124h-24.089v-12.124c0-5.098-4.132-9.231-9.231-9.231s-9.231,4.133-9.231,9.231v12.124h-24.089v-12.124  c0-5.098-4.132-9.231-9.231-9.231c-5.099,0-9.231,4.133-9.231,9.231v12.124h-24.089v-12.124c0-5.098-4.132-9.231-9.231-9.231  c-5.099,0-9.231,4.133-9.231,9.231v12.124h-19.749c-5.099,0-9.231,4.133-9.231,9.231s4.132,9.231,9.231,9.231h19.749v12.124  c0,5.098,4.132,9.231,9.231,9.231c5.099,0,9.231-4.133,9.231-9.231v-12.124h24.089v12.124c0,5.098,4.132,9.231,9.231,9.231  c5.099,0,9.231-4.133,9.231-9.231v-12.124h24.089v12.124c0,5.098,4.132,9.231,9.231,9.231s9.231-4.133,9.231-9.231v-12.124h24.089  v12.124c0,5.098,4.132,9.231,9.231,9.231c5.099,0,9.231-4.133,9.231-9.231v-12.124h19.749c5.099,0,9.231-4.133,9.231-9.231  S353.904,236.923,348.805,236.923z"/>
<path style="fill:#3C3A41;" d="M422.418,127.53C402.704,54.08,335.673,0,256,0l0,0C176.327,0,109.296,54.079,89.582,127.53  c1.147,1.353,23.257,27.409,23.257,27.409l23.861-28.122l23.861,28.122l23.861-28.122l23.861,28.122l23.861-28.122L256,154.939  l23.861-28.122l23.861,28.122l23.861-28.122l23.861,28.122l23.861-28.122l23.861,28.122  C399.163,154.939,421.271,128.884,422.418,127.53z"/>
<path style="fill:#FF738D;" d="M294.071,417.58c-8.318-7.27-22.265-12.041-38.073-12.041c-15.808,0-29.754,4.77-38.073,12.041  c9.783,9.673,23.228,15.65,38.074,15.65C270.846,433.231,284.289,427.253,294.071,417.58z"/>
<path style="opacity:0.3;fill:#20272E;enable-background:new    ;" d="M465.231,312.615v12.308h-36.923V172.308  c0-15.49-2.057-30.497-5.889-44.778l0,0l0,0l0,0C402.704,54.079,335.673,0,256,0v512h51.173  c66.727,0,120.848-53.954,121.129-120.615h36.929v12.308h41.846v-91.077H465.231z"/>
<g>
</g>
<g>
</g>
<g>
</g>
<g>
</g>
<g>
</g>
<g>
</g>
<g>
</g>
<g>
</g>
<g>
</g>
<g>
</g>
<g>
</g>
<g>
</g>
<g>
</g>
<g>
</g>
<g>
</g>
</svg>
