<?xml version="1.0" encoding="UTF-8" standalone="no"?>
<svg xmlns:dc="http://purl.org/dc/elements/1.1/" xmlns:cc="http://creativecommons.org/ns#" xmlns:rdf="http://www.w3.org/1999/02/22-rdf-syntax-ns#" xmlns:svg="http://www.w3.org/2000/svg" xmlns="http://www.w3.org/2000/svg" viewBox="0 0 85.333336 85.333336" height="500" width="500" xml:space="preserve" id="svg2" version="1.1"><metadata id="metadata8"><rdf:RDF><cc:Work rdf:about=""><dc:format>image/svg+xml</dc:format><dc:type rdf:resource="http://purl.org/dc/dcmitype/StillImage"/></cc:Work></rdf:RDF></metadata><defs id="defs6"><clipPath id="clipPath20" clipPathUnits="userSpaceOnUse"><path style="clip-rule:evenodd" id="path18" d="M 140,559.934 C 140,571.016 148.898,580 159.996,580 H 480.004 C 491.047,580 500,570.973 500,559.934 V 119.906 C 500,86.8203 473.234,60 439.945,60 H 200.055 C 166.887,60 140,86.8633 140,119.906 Z"/></clipPath><clipPath id="clipPath26" clipPathUnits="userSpaceOnUse"><path id="path24" d="M 0,0 H 640 V 640 H 0 Z"/></clipPath><clipPath id="clipPath36" clipPathUnits="userSpaceOnUse"><path style="clip-rule:evenodd" id="path34" d="m 230,220 v 30 h -30 v -30 h -30 v -30 h 30 v -30 h 30 v 30 h 30 v 30 z"/></clipPath><clipPath id="clipPath42" clipPathUnits="userSpaceOnUse"><path id="path40" d="M 0,0 H 640 V 640 H 0 Z"/></clipPath><clipPath id="clipPath52" clipPathUnits="userSpaceOnUse"><path style="clip-rule:evenodd" id="path50" d="m 390,150 c 11.047,0 20,8.953 20,20 0,11.047 -8.953,20 -20,20 -11.047,0 -20,-8.953 -20,-20 0,-11.047 8.953,-20 20,-20 z"/></clipPath><clipPath id="clipPath58" clipPathUnits="userSpaceOnUse"><path id="path56" d="M 0,0 H 640 V 640 H 0 Z"/></clipPath><clipPath id="clipPath68" clipPathUnits="userSpaceOnUse"><path style="clip-rule:evenodd" id="path66" d="m 390,250 c 11.047,0 20,8.953 20,20 0,11.047 -8.953,20 -20,20 -11.047,0 -20,-8.953 -20,-20 0,-11.047 8.953,-20 20,-20 z"/></clipPath><clipPath id="clipPath74" clipPathUnits="userSpaceOnUse"><path id="path72" d="M 0,0 H 640 V 640 H 0 Z"/></clipPath><clipPath id="clipPath84" clipPathUnits="userSpaceOnUse"><path style="clip-rule:evenodd" id="path82" d="m 340,200 c 11.047,0 20,8.953 20,20 0,11.047 -8.953,20 -20,20 -11.047,0 -20,-8.953 -20,-20 0,-11.047 8.953,-20 20,-20 z"/></clipPath><clipPath id="clipPath90" clipPathUnits="userSpaceOnUse"><path id="path88" d="M 0,0 H 640 V 640 H 0 Z"/></clipPath><clipPath id="clipPath100" clipPathUnits="userSpaceOnUse"><path style="clip-rule:evenodd" id="path98" d="m 440,200 c 11.047,0 20,8.953 20,20 0,11.047 -8.953,20 -20,20 -11.047,0 -20,-8.953 -20,-20 0,-11.047 8.953,-20 20,-20 z"/></clipPath><clipPath id="clipPath106" clipPathUnits="userSpaceOnUse"><path id="path104" d="M 0,0 H 640 V 640 H 0 Z"/></clipPath><clipPath id="clipPath116" clipPathUnits="userSpaceOnUse"><path id="path114" d="M 170,530 H 470 V 320 H 170 Z"/></clipPath></defs><g transform="matrix(1.3333333,0,0,-1.3333333,0,85.333333)" id="g10"><g transform="scale(0.1)" id="g12"><g id="g14"><g clip-path="url(#clipPath20)" id="g16"><g clip-path="url(#clipPath26)" id="g22"><path id="path28" style="fill:#fdc248;fill-opacity:1;fill-rule:nonzero;stroke:none" d="M 90,10 H 550 V 630 H 90 Z"/></g></g></g><g id="g30"><g clip-path="url(#clipPath36)" id="g32"><g clip-path="url(#clipPath42)" id="g38"><path id="path44" style="fill:#585858;fill-opacity:1;fill-rule:nonzero;stroke:none" d="M 120,110 H 310 V 300 H 120 Z"/></g></g></g><g id="g46"><g clip-path="url(#clipPath52)" id="g48"><g clip-path="url(#clipPath58)" id="g54"><path id="path60" style="fill:#585858;fill-opacity:1;fill-rule:nonzero;stroke:none" d="M 320,100 H 460 V 240 H 320 Z"/></g></g></g><g id="g62"><g clip-path="url(#clipPath68)" id="g64"><g clip-path="url(#clipPath74)" id="g70"><path id="path76" style="fill:#585858;fill-opacity:1;fill-rule:nonzero;stroke:none" d="M 320,200 H 460 V 340 H 320 Z"/></g></g></g><g id="g78"><g clip-path="url(#clipPath84)" id="g80"><g clip-path="url(#clipPath90)" id="g86"><path id="path92" style="fill:#585858;fill-opacity:1;fill-rule:nonzero;stroke:none" d="M 270,150 H 410 V 290 H 270 Z"/></g></g></g><g id="g94"><g clip-path="url(#clipPath100)" id="g96"><g clip-path="url(#clipPath106)" id="g102"><path id="path108" style="fill:#585858;fill-opacity:1;fill-rule:nonzero;stroke:none" d="M 370,150 H 510 V 290 H 370 Z"/></g></g></g><g id="g110"><g clip-path="url(#clipPath116)" id="g112"><path id="path118" style="fill:#585858;fill-opacity:1;fill-rule:nonzero;stroke:none" d="M 120,270 H 520 V 580 H 120 Z"/></g></g><path id="path120" style="fill:none;stroke:#ee9102;stroke-width:20;stroke-linecap:square;stroke-linejoin:miter;stroke-miterlimit:10;stroke-dasharray:none;stroke-opacity:1" d="M 240,570 V 560"/><path id="path122" style="fill:none;stroke:#ee9102;stroke-width:20;stroke-linecap:square;stroke-linejoin:miter;stroke-miterlimit:10;stroke-dasharray:none;stroke-opacity:1" d="M 200,570 V 560"/></g></g></svg>
