<?xml version="1.0"?>
<svg xmlns="http://www.w3.org/2000/svg" width="500" height="500" viewBox="0 0 512 512.031"><path fill="#46b29d" d="m62.203125 130.679688c-16.898437-11.585938-39.839844-8.417969-52.964844 7.3125-13.128906 15.734374-12.132812 38.871093 2.292969 53.421874l41.316406 41.417969zm0 0"/><path fill="#7ed09e" d="m511.878906 406.101562c-9.160156 18.183594-21.785156 34.40625-37.164062 47.753907-44.046875 38.859375-111.226563 58.175781-187.9375 58.175781-86.15625 0-161.457032-29.835938-202.0625-74.328125-8.722656-9.417969-16.011719-20.066406-21.628906-31.601563-6.667969-13.765624-10.164063-28.847656-10.238282-44.140624v-172.382813c0-101.960937 80.59375-187.941406 182.550782-189.546875 14.789062-.273438 29.550781 1.269531 43.964843 4.589844 84.375 19.21875 144.238281 94.25 144.242188 180.789062v143.890625c-.230469 17.167969 4.0625 34.09375 12.445312 49.082031 11.652344 20.054688 36.457031 36.828126 75.828125 27.71875zm0 0"/><path fill="#bbd1b5" d="m474.714844 453.875c-44.046875 38.839844-111.226563 58.15625-187.9375 58.15625-86.15625 0-161.457032-29.835938-202.0625-74.328125v-258.277344c-.378906-42.519531 16.148437-83.449219 45.949218-113.78125 29.796876-30.332031 70.425782-47.582031 112.945313-47.957031 10.769531-.015625 21.511719 1.109375 32.042969 3.351562 30.53125 6.398438 58.484375 21.695313 80.332031 43.960938 29.902344 30.566406 46.609375 71.648438 46.523437 114.40625v197.652344s0 55.011718 72.207032 76.816406zm0 0"/><path fill="#7ed09e" d="m417.988281 256.984375 65.546875-65.535156c7.449219-7.449219 11.636719-17.554688 11.636719-28.089844s-4.1875-20.640625-11.636719-28.089844c-7.449218-7.449219-17.554687-11.636719-28.089844-11.636719-10.535156 0-20.640624 4.1875-28.089843 11.636719l-65.542969 65.535157zm0 0"/><path fill="#bbd1b5" d="m403.300781 244.730469 65.492188-65.5c7.449219-7.449219 11.636719-17.554688 11.636719-28.089844s-4.1875-20.640625-11.636719-28.089844c-15.511719-15.507812-40.65625-15.507812-56.171875 0l-65.542969 65.539063zm0 0"/><path fill="#2c3e50" d="m158.777344 180.996094c0-26.8125-11.855469-48.550782-26.484375-48.550782-14.625 0-26.480469 21.738282-26.480469 48.550782 0 26.816406 11.855469 48.550781 26.480469 48.550781 14.628906 0 26.484375-21.734375 26.484375-48.550781zm0 0"/><path fill="#fff" d="m141.121094 172.167969c0-17.0625-5.929688-30.894531-13.242188-30.894531s-13.238281 13.832031-13.238281 30.894531 5.925781 30.898437 13.238281 30.898437 13.242188-13.835937 13.242188-30.898437zm0 0"/><path fill="#2c3e50" d="m247.050781 326.652344c0-43.878906-19.757812-79.449219-44.136719-79.449219-24.375 0-44.136718 35.570313-44.136718 79.449219s19.761718 79.449218 44.136718 79.449218c24.378907 0 44.136719-35.570312 44.136719-79.449218zm0 0"/><path fill="#2c3e50" d="m300.019531 180.996094c0-26.8125-11.859375-48.550782-26.484375-48.550782s-26.484375 21.738282-26.484375 48.550782c0 26.816406 11.859375 48.550781 26.484375 48.550781s26.484375-21.734375 26.484375-48.550781zm0 0"/><path fill="#fff" d="m282.363281 172.167969c0-17.0625-5.929687-30.894531-13.242187-30.894531s-13.242188 13.832031-13.242188 30.894531 5.929688 30.898437 13.242188 30.898437 13.242187-13.835937 13.242187-30.898437zm0 0"/><path fill="#ff5364" d="m240.785156 383.414062c-7.769531 22.6875-21.804687 22.6875-37.871094 22.6875-16.066406 0-30.101562 0-37.871093-22.6875 7.972656-13.316406 22.351562-21.46875 37.871093-21.46875 15.519532 0 29.898438 8.152344 37.871094 21.46875zm0 0"/></svg>
