<?xml version="1.0"?>
<svg xmlns="http://www.w3.org/2000/svg" xmlns:xlink="http://www.w3.org/1999/xlink" id="Layer_1" style="enable-background:new 0 0 24 24;" version="1.1" viewBox="0 0 24 24" xml:space="preserve" width="500" height="500"><g id="XMLID_1706_"><path d="M2.5,23.5c1.19,0,1.19-1,2.38-1s1.19,1,2.38,1c1.188,0,1.188-1,2.376-1   s1.188,1,2.375,1s1.187-1,2.375-1c1.186,0,1.186,1,2.372,1c1.184,0,1.184-1,2.369-1c1.187,0,1.187,1,2.374,1l-0.638-4.467   c-0.241-1.686-0.362-3.388-0.362-5.091v-4.65c0-4.527-3.416-8.48-7.934-8.773c-4.951-0.321-9.066,3.6-9.066,8.482v4.942   c0,1.703-0.121,3.405-0.362,5.091L2.5,23.5z" id="XMLID_1493_" style="fill:#E4E5E6;"/><path d="M6.869,19.033   c0.14-1.686,0.209-3.388,0.209-5.091V9c0-4.57,2.089-8.297,4.707-8.491C7.19,0.623,3.499,4.378,3.499,9v4.942   c0,1.703-0.121,3.405-0.362,5.091L2.5,23.5c1.19,0,1.19-1,2.38-1c0.87,0,1.107,0.533,1.635,0.82L6.869,19.033z" id="XMLID_1510_" style="opacity:0.5;fill:#FFFFFF;enable-background:new    ;"/><path d="M20.862,19.033c-0.241-1.686-0.362-3.388-0.362-5.091   v-4.65c0-4.527-3.416-8.48-7.934-8.773C12.375,0.507,12.188,0.512,12,0.512c0.109,0,0.217-0.005,0.328,0.007   c2.616,0.292,4.594,4.246,4.594,8.773v4.65c0,1.703,0.07,3.405,0.209,5.091l0.355,4.295c0.535-0.286,0.767-0.828,1.64-0.828   c1.187,0,1.187,1,2.374,1L20.862,19.033z" id="XMLID_1511_" style="opacity:0.1;enable-background:new    ;"/><g id="XMLID_1307_"><path d="M21.357,18.962C21.12,17.304,21,15.615,21,13.94V9.29    c0-4.894-3.69-8.966-8.402-9.271c-2.52-0.16-4.917,0.694-6.751,2.413C4.037,4.128,3,6.52,3,9v4.941    c0,1.674-0.12,3.363-0.357,5.021l-0.638,4.467c-0.021,0.144,0.022,0.289,0.117,0.398S2.355,24,2.5,24    c0.776,0,1.184-0.342,1.511-0.617C4.285,23.153,4.467,23,4.88,23c0.412,0,0.594,0.152,0.868,0.383C6.074,23.657,6.481,24,7.259,24    c0.776,0,1.184-0.342,1.511-0.618C9.043,23.152,9.224,23,9.635,23s0.592,0.152,0.865,0.382C10.827,23.656,11.233,24,12.01,24    s1.183-0.342,1.51-0.618C13.793,23.152,13.974,23,14.385,23s0.591,0.152,0.864,0.382C15.575,23.656,15.981,24,16.757,24    c0.776,0,1.181-0.343,1.507-0.618C18.536,23.152,18.717,23,19.126,23c0.41,0,0.591,0.152,0.864,0.382    C20.317,23.656,20.723,24,21.5,24c0.145,0,0.283-0.063,0.378-0.172s0.138-0.255,0.117-0.398L21.357,18.962z M20.635,22.617    C20.308,22.343,19.902,22,19.126,22s-1.181,0.343-1.507,0.618C17.347,22.847,17.166,23,16.757,23c-0.41,0-0.59-0.152-0.863-0.382    C15.568,22.343,15.162,22,14.385,22s-1.183,0.342-1.51,0.618C12.602,22.847,12.421,23,12.01,23s-0.592-0.152-0.865-0.382    C10.818,22.343,10.412,22,9.635,22s-1.183,0.342-1.51,0.617C7.852,22.847,7.671,23,7.259,23s-0.594-0.152-0.868-0.383    C6.064,22.341,5.657,22,4.88,22s-1.185,0.342-1.512,0.617c-0.096,0.081-0.181,0.151-0.267,0.209l0.531-3.723    c0.243-1.704,0.367-3.441,0.367-5.162V9c0-2.235,0.898-4.309,2.53-5.838c1.63-1.528,3.758-2.29,6.003-2.144    c4.187,0.271,7.467,3.905,7.467,8.273v4.65c0,1.721,0.124,3.458,0.367,5.162l0.531,3.722    C20.813,22.768,20.729,22.697,20.635,22.617z" id="XMLID_1333_" style="fill:#303C42;"/><path d="M9,7C8.263,7,8,8.033,8,9s0.263,2,1,2s1-1.033,1-2S9.737,7,9,7z" id="XMLID_1338_" style="fill:#303C42;"/><path d="M15,7c-0.737,0-1,1.033-1,2s0.263,2,1,2s1-1.033,1-2S15.737,7,15,7z" id="XMLID_1339_" style="fill:#303C42;"/></g><linearGradient gradientUnits="userSpaceOnUse" id="XMLID_2_" x1="2.0131" x2="23.9781" y1="9.1277" y2="19.3701"><stop offset="0" style="stop-color:#FFFFFF;stop-opacity:0.2"/><stop offset="1" style="stop-color:#FFFFFF;stop-opacity:0"/></linearGradient><path d="M21.356,18.962C21.12,17.302,21,15.613,21,13.941v-4.65   c0-4.894-3.69-8.966-8.402-9.271c-2.52-0.16-4.917,0.694-6.751,2.413C4.037,4.128,3,6.52,3,9v4.941c0,1.672-0.12,3.361-0.356,5.021   l-0.639,4.467c-0.021,0.144,0.022,0.289,0.117,0.398S2.355,24,2.5,24c0.776,0,1.184-0.342,1.511-0.617   C4.285,23.153,4.467,23,4.88,23c0.412,0,0.594,0.152,0.868,0.383C6.074,23.657,6.481,24,7.259,24c0.776,0,1.184-0.342,1.511-0.618   C9.043,23.152,9.224,23,9.635,23s0.592,0.152,0.865,0.382C10.827,23.656,11.233,24,12.01,24s1.183-0.342,1.51-0.618   C13.793,23.152,13.974,23,14.385,23s0.591,0.152,0.864,0.382C15.575,23.656,15.981,24,16.757,24c0.776,0,1.181-0.343,1.507-0.618   C18.536,23.152,18.717,23,19.126,23c0.41,0,0.591,0.152,0.864,0.382C20.317,23.656,20.723,24,21.5,24   c0.145,0,0.283-0.063,0.378-0.172s0.138-0.255,0.117-0.398L21.356,18.962z" id="XMLID_1507_" style="fill:url(#XMLID_2_);"/></g></svg>
