<?xml version="1.0"?>
<svg xmlns="http://www.w3.org/2000/svg" xmlns:xlink="http://www.w3.org/1999/xlink" id="Gradient" viewBox="0 0 512 512" width="500" height="500"><defs><linearGradient id="linear-gradient" x1="256" y1="496" x2="256" y2="16" gradientUnits="userSpaceOnUse"><stop offset="0" stop-color="#12c2e9"/><stop offset="0.5" stop-color="#c471ed"/><stop offset="1" stop-color="#f64f59"/></linearGradient></defs><path d="M16.956,379.793A8,8,0,0,0,24,384H177.873L249.32,492.4a8,8,0,0,0,13.36,0L334.127,384H488a8,8,0,0,0,6.68-12.4L418.49,256l76.19-115.6A8,8,0,0,0,488,128H334.127L262.68,19.6a8,8,0,0,0-13.36,0L177.873,128H24a8,8,0,0,0-6.68,12.4L93.51,256,17.32,371.6A8,8,0,0,0,16.956,379.793ZM256,473.463,197.036,384H314.964ZM186.491,368,112.672,256l73.819-112H325.51l73.818,112L325.51,368Zm286.655,0H344.672l64.237-97.463Zm0-224-64.237,97.463L344.672,144ZM256,38.537,314.964,128H197.036ZM38.854,144H167.328l-64.237,97.463Zm64.237,126.537L167.328,368H38.854Zm230.545-20.215C332.225,248.921,298.571,216,256,216s-76.225,32.921-77.636,34.322a8,8,0,0,0,0,11.356C179.775,263.079,213.429,296,256,296s76.225-32.921,77.636-34.322a8,8,0,0,0,0-11.356Zm-114.957-8.694a39.893,39.893,0,0,0,0,28.745A129.29,129.29,0,0,1,196.225,256,129.313,129.313,0,0,1,218.679,241.628ZM232,256a24,24,0,1,1,24,24A24.028,24.028,0,0,1,232,256Zm61.321,14.372a39.89,39.89,0,0,0,0-28.744A129.3,129.3,0,0,1,315.774,256,129.3,129.3,0,0,1,293.321,270.372Z" style="fill:url(#linear-gradient)"/></svg>
