<?xml version="1.0"?>
<svg xmlns="http://www.w3.org/2000/svg" viewBox="0 0 649.93 539.71" width="500" height="500">
  <defs>
    <style>
      .b6e0e8d2-9148-456a-b2aa-ab5159d36138 {
        fill: #1a1a1a;
      }

      .a9d76613-7eeb-4dfa-9fa7-0034e1fd9092 {
        fill: #4f8977;
      }

      .af0d1f47-68da-4a57-bc2f-74e059e6554a {
        fill: none;
      }

      .b07d3001-89d7-4a38-a7b7-a460bf7cff83 {
        fill: #f2f2f2;
      }

      .a8b87af7-73cc-4876-a66f-c3a259703284, .e4a2e100-80fd-4937-b2d6-322e8e24952d {
        fill: #fff;
      }

      .f274ba40-ac7b-4cb4-943c-926838c6873b {
        fill: #b3b3b3;
      }

      .a9e02352-8445-45cd-8d49-dc708b0e3ac9 {
        fill: #fc9;
      }

      .f70a3a9a-aabe-47ac-8872-54a8695aac8f {
        fill: #6c9;
      }

      .a439610c-ebcc-417f-ab95-68b0eb0f161d {
        opacity: 0.61;
      }

      .eaedce31-dcdb-4f51-be60-7dbe6fef1c72 {
        fill: #666;
      }

      .baf0b737-4ea5-49ff-bea4-6a17fd6a5054 {
        opacity: 0.14;
      }

      .b12a5e98-4589-489d-90bf-1d168a4d076b {
        fill: #4d4d4d;
      }

      .a8b87af7-73cc-4876-a66f-c3a259703284 {
        opacity: 0.11;
      }

      .a57cb1c2-dcb5-44e6-8ab3-d50899e88e9a {
        fill: #999;
      }

      .b09778b3-ac27-43ce-b8cb-665443736684 {
        opacity: 0.64;
      }

      .a5fcd050-f76e-451f-9e6a-e9c57c7a35d4 {
        fill: gray;
      }

      .e838c31d-8530-4e51-8d9d-0b8623d7f2a0 {
        opacity: 0.12;
      }

      .be44b605-0812-4f56-8966-84b03f3745aa {
        fill: #ccc;
      }
    </style>
  </defs>
  <g id="be06cdbc-56e0-42d5-8de7-7f2d422edd76" data-name="Layer 2">
    <g id="b6d41a56-0fd7-4164-9052-adc34dbafdf0" data-name="JollyGood">
      <g id="ba9c062d-6dce-491f-a84c-31d9f3ed9f3c" data-name="Face">
        <g>
          <g>
            <path class="b6e0e8d2-9148-456a-b2aa-ab5159d36138" d="M614.75,263l-3.82,33.71a94.39,94.39,0,0,0-7.81-15.35,8.46,8.46,0,0,0-4-3.12l-22.32-8.76V263H73.4v5.49l-22.65,9a8.36,8.36,0,0,0-4,3.16A95.71,95.71,0,0,0,39,296.2L35.19,263H13.94l5.47,48.4a8.88,8.88,0,0,0-1.41,1c-.6.56-14.83,13.75-14.83,33.54s14.23,33,14.83,33.53a8.89,8.89,0,0,0,3.9,2.05L35,384.64c5,16.27,11.48,26.17,11.76,26.59a8.48,8.48,0,0,0,4,3.16l22.65,9V427H576.85v-4.6l22.32-8.75a8.42,8.42,0,0,0,4-3.13c.28-.41,6.78-10.2,11.76-26.28L628,381.1a9,9,0,0,0,3.89-2c.6-.55,14.83-13.6,14.83-33.17s-14.23-32.63-14.83-33.17a9.19,9.19,0,0,0-1.44-1L636,263Z"/>
            <path class="a9d76613-7eeb-4dfa-9fa7-0034e1fd9092" d="M505.84,405.26l-.33-.32-.09-.09Z"/>
            <path class="af0d1f47-68da-4a57-bc2f-74e059e6554a" d="M80.23,404.84V293.57a184.67,184.67,0,0,0,0,111.27Z"/>
            <path class="b07d3001-89d7-4a38-a7b7-a460bf7cff83" d="M317.87,520.49c-75.65,0-143.82-7-191.91-19.7-23.72-6.28-43-30.84-43-54.75V236.74c0-22.61,17.37-40.38,44.12-45.23,47.47-8.61,106.14-13,174.23-13a1882.61,1882.61,0,0,1,214.8,12.84c26.48,3.11,45,21.75,45,45.36V446c0,23.93-19.81,49-43.25,54.8C467.13,513.32,394.23,520.49,317.87,520.49Z"/>
            <path class="af0d1f47-68da-4a57-bc2f-74e059e6554a" d="M520.42,207.09A1891,1891,0,0,0,304,193.92c-68.32,0-126.9,4.43-174.12,13.15-15.13,2.86-31.31,12.35-31.31,30.41V454c0,17.08,14.72,36,31.51,40.56,47.51,12.78,115.27,19.81,190.78,19.81,76.28,0,148.91-7.22,199.26-19.82,16.41-4.12,31.35-23.45,31.35-40.55V237.48C551.46,221.77,538.69,209.28,520.42,207.09Z"/>
            <path class="b6e0e8d2-9148-456a-b2aa-ab5159d36138" d="M523.45,181.93A1900.1,1900.1,0,0,0,304,168.59c-69.94,0-130,4.59-178.67,13.64-31.06,5.74-51.94,28-51.94,55.33V454a67.42,67.42,0,0,0,14.69,40.43l.06.08a68.54,68.54,0,0,0,35.47,24.56c49.54,13.31,119.6,20.65,197.29,20.65,78.34,0,153.21-7.5,205.42-20.58,27.86-7,50.52-36.19,50.52-65.11V237.48C576.85,209.05,554.39,185.69,523.45,181.93Zm36,272.09c0,9.94-4.08,20.9-11.18,30.08s-16.66,15.83-26.22,18.23c-51,12.75-124.3,20.06-201.21,20.06-76.19,0-144.69-7.13-192.86-20.08-9.56-2.58-19.12-9.32-26.23-18.49s-11.2-20-11.2-29.8V237.48c0-19.19,14.5-33.86,37.84-38.27,47.72-8.82,106.8-13.28,175.6-13.29h.05a1897.16,1897.16,0,0,1,217.32,13.23c22.42,2.68,38.09,18.44,38.09,38.33Z"/>
            <polygon class="e4a2e100-80fd-4937-b2d6-322e8e24952d" points="304.01 168.59 304.01 168.59 304.01 168.59 304.01 168.59"/>
            <polygon class="e4a2e100-80fd-4937-b2d6-322e8e24952d" points="303.99 193.92 303.99 193.92 303.99 193.92 303.99 193.92"/>
            <path class="e4a2e100-80fd-4937-b2d6-322e8e24952d" d="M304,191.42h0Z"/>
            <path class="e4a2e100-80fd-4937-b2d6-322e8e24952d" d="M304,163.09h0Z"/>
            <path class="f274ba40-ac7b-4cb4-943c-926838c6873b" d="M500.93,237.78c-128.48-12.36-246.7-17.27-350.85,0-16.15,3.24-29.79,14.32-29.79,32v81.17c0,17.67,10.91,37.19,26.79,41.82,92.67,27.12,266.43,24.58,356.85,0,16-4.33,26.8-24.15,26.8-41.82V269.77C530.73,252.1,517.27,239.89,500.93,237.78Z"/>
            <g>
              <path class="a9e02352-8445-45cd-8d49-dc708b0e3ac9" d="M612.29,315.81l13.29-117.55a12.66,12.66,0,0,1,8.19-22.3,13.71,13.71,0,0,1,1.43.08,12.65,12.65,0,0,1,4.41,23.8L626.32,317.39Z"/>
              <path class="b6e0e8d2-9148-456a-b2aa-ab5159d36138" d="M633.77,179.46a9.15,9.15,0,0,1,2.6,17.93L623.23,313.52l-7.07-.8L629.3,196.59a9.15,9.15,0,0,1,4.47-17.13m0-7a16.16,16.16,0,0,0-11.86,27.12l-12.7,112.36-.79,6.95,7,.79,7.08.8,6.95.78.79-6.95L642.9,202a16.16,16.16,0,0,0-7.31-29.39,15.86,15.86,0,0,0-1.82-.1Z"/>
            </g>
            <path class="a9e02352-8445-45cd-8d49-dc708b0e3ac9" d="M642.87,189.64a9.15,9.15,0,1,0-13.57,7L616.16,312.72l7.07.8,13.14-116.13A9.14,9.14,0,0,0,642.87,189.64Z"/>
            <path class="b07d3001-89d7-4a38-a7b7-a460bf7cff83" d="M635.55,345.68c0-12.46-6.4-22.45-13.23-25.23l-7.1-1.5a115,115,0,0,1,0,53.46l7.09-1.49C629.15,366.55,635.55,358.14,635.55,345.68Z"/>
            <path class="b6e0e8d2-9148-456a-b2aa-ab5159d36138" d="M500.93,234.5c-113-14.3-253.66-19.08-350.85,0-16.15,3.16-29.79,14-29.79,31.32V345.3c0,17.31,13.91,36.43,29.79,41,92.67,26.56,260.43,24.07,350.85,0,16-4.25,29.8-23.65,29.8-41V265.82C530.73,248.51,517.27,236.56,500.93,234.5Z"/>
            <rect class="f70a3a9a-aabe-47ac-8872-54a8695aac8f" x="374.84" y="267.79" width="81.72" height="81.72" rx="17.72"/>
            <path class="b6e0e8d2-9148-456a-b2aa-ab5159d36138" d="M266.6,436.9c-11.57,0-19.52,10.8-14.66,20.19C264.3,481.21,292.18,498,324.62,498s60.28-16.82,72.68-40.94c4.86-9.47-3.09-20.19-14.66-20.19Z"/>
            <g class="a439610c-ebcc-417f-ab95-68b0eb0f161d">
              <path class="eaedce31-dcdb-4f51-be60-7dbe6fef1c72" d="M188.48,419.92c-1.13,5.09,6.77,6.86,7.91,1.76S189.62,414.81,188.48,419.92Z"/>
              <path class="eaedce31-dcdb-4f51-be60-7dbe6fef1c72" d="M176.68,432.53c-1.13,5.09,6.77,6.86,7.91,1.76S177.82,427.42,176.68,432.53Z"/>
              <path class="eaedce31-dcdb-4f51-be60-7dbe6fef1c72" d="M171.36,416.1c-1.14,5.09,6.76,6.86,7.9,1.76S172.5,411,171.36,416.1Z"/>
              <g>
                <path class="eaedce31-dcdb-4f51-be60-7dbe6fef1c72" d="M464.48,417.9c1.28,5.06,9.13,3.07,7.84-2S463.19,412.84,464.48,417.9Z"/>
                <path class="eaedce31-dcdb-4f51-be60-7dbe6fef1c72" d="M459.64,434.49c1.29,5.06,9.14,3.07,7.85-2S458.35,429.42,459.64,434.49Z"/>
                <path class="eaedce31-dcdb-4f51-be60-7dbe6fef1c72" d="M447.47,422.23c1.29,5.06,9.14,3.07,7.85-2S446.18,417.17,447.47,422.23Z"/>
              </g>
            </g>
            <path class="a9e02352-8445-45cd-8d49-dc708b0e3ac9" d="M306,133a18.79,18.79,0,0,1-11.3-3.7l-.35-.29a11.78,11.78,0,0,1-4-9.29,305.91,305.91,0,0,1,5.62-42.12c5.3-25.7,11.27-35.67,22-36.81a5.63,5.63,0,0,1,.58,0h1c6.11,0,11.52,3.52,21.33,9.91l.08.05c4.88,3.31,10,6.47,15.16,9.43,4-7.78,7.62-14.59,10.8-20.34a19.31,19.31,0,0,1-3.14-6.93.36.36,0,0,0,0-.1,20,20,0,0,1,5.74-18.21A31.26,31.26,0,0,1,386.71,6a38,38,0,0,1,5.87-.48c13.17,0,24,7.2,26.31,17.51a19.94,19.94,0,0,1-5.72,18.29,29.49,29.49,0,0,1-11,7c-.72,2.2-1.46,4.48-2.2,6.8C387.09,95.12,382,109,368.71,109a14.29,14.29,0,0,1-2.93-.31,49,49,0,0,1-9.63-3.18q1.14,3,2.39,6c.72,1.78,1.29,3.19,1.65,4.12a12.15,12.15,0,0,1-1.61,12.66c-.05.07-.11.13-.17.2A13.64,13.64,0,0,1,348.07,133h-.67a38.58,38.58,0,0,1-9.68-1.86,32.36,32.36,0,0,0-6.78-1.38h0c-.73.12-1.54.27-2.39.43l-1.42.26A131.28,131.28,0,0,1,307.3,133C306.85,133,306.4,133,306,133Z"/>
            <path class="b6e0e8d2-9148-456a-b2aa-ab5159d36138" d="M392.59,11c10.55,0,19.18,5.43,20.94,13.23a14.31,14.31,0,0,1-4.23,13.16,24.72,24.72,0,0,1-11.47,6.47c-1,3-2,6.22-3.09,9.52-12.87,40-17.26,50.09-26,50.09h0a8.9,8.9,0,0,1-1.78-.19c-6.83-1.47-12.07-4.44-18.16-7.86-.7-.41-1.42-.83-2.19-1.24a176.54,176.54,0,0,0,6.9,19.41c.73,1.78,1.31,3.23,1.67,4.14a6.63,6.63,0,0,1-.87,7.07,8.25,8.25,0,0,1-6.2,2.66h-.32a33.68,33.68,0,0,1-8.31-1.6,36.9,36.9,0,0,0-8.26-1.66h-.72c-1.28.21-2.8.5-4.42.79A124.19,124.19,0,0,1,307,127.46c-.33,0-.67,0-1,0a13.29,13.29,0,0,1-8-2.58,6.26,6.26,0,0,1-2.17-4.94,298.63,298.63,0,0,1,5.5-41.28c5.36-26,10.77-31.76,17.22-32.44h1c4.3,0,8.71,2.75,18.33,9A233,233,0,0,0,358.37,67.7c3.41-6.67,9.52-18.53,15.19-28.63a14.29,14.29,0,0,1-4.46-7.42,14.37,14.37,0,0,1,4.22-13.19,25.82,25.82,0,0,1,14.25-7,31.29,31.29,0,0,1,5-.41m0-11h0a43.23,43.23,0,0,0-6.73.55,36.89,36.89,0,0,0-20.28,10.13,25.43,25.43,0,0,0-7.22,23.21,1.77,1.77,0,0,0,0,.2,24.31,24.31,0,0,0,2.15,5.85q-3.09,5.69-6.67,12.53c-3.35-2-6.65-4.14-9.85-6.31l-.17-.11c-10.34-6.74-16.58-10.8-24.33-10.8h-1a11.27,11.27,0,0,0-1.16.06c-7.2.76-13,4.82-17.32,12.07-3.67,6.2-6.69,15.45-9.51,29.09a311.62,311.62,0,0,0-5.71,42.81c0,.06,0,.11,0,.17a17.21,17.21,0,0,0,5.82,13.64c.23.21.46.4.71.59A24.33,24.33,0,0,0,306,138.49c.55,0,1.11,0,1.66-.05a135.52,135.52,0,0,0,20.52-2.65l1.37-.25,1.6-.29a26.4,26.4,0,0,1,4.93,1.07,44.51,44.51,0,0,0,11,2.11l.31,0h.71A19.16,19.16,0,0,0,362.55,132c.12-.13.23-.27.34-.41a17.6,17.6,0,0,0,2.7-17.41,20.48,20.48,0,0,0,3.11.25c13.17,0,19.08-11.68,21.3-16.08,4.19-8.29,8.58-21,15.21-41.64l1.41-4.36a34.91,34.91,0,0,0,10.48-7.23A25.41,25.41,0,0,0,424.3,22a1.62,1.62,0,0,1,0-.19C421.35,9,408.33,0,392.59,0Z"/>
            <g>
              <path class="b6e0e8d2-9148-456a-b2aa-ab5159d36138" d="M321.17,139c21.23,0,43.08,2.19,58.08,5.8,4.3,1.06,8,3.72,8,8.3v24.57c.21,4.3-3.35,8-8,8.22H271c-4.65-.26-8.21-3.92-8-8.22v-24.5c0-4.59,3.77-6.94,8-8.3,12.66-4,31.17-5.8,50.17-5.8m0-16.2c-16,0-38.61,1.16-55.89,6.7-12.45,4-19.81,12.79-19.81,23.6v24.57c0,13.5,11.45,24.48,25.53,24.48H379.25c14.08,0,25.53-11,25.53-24.48V153.18c0-11.5-8.28-20.89-21.1-24-16.45-4-39.81-6.32-62.51-6.32Z"/>
              <path class="b6e0e8d2-9148-456a-b2aa-ab5159d36138" d="M379.25,203.23H271c-14.63,0-26.53-11.43-26.53-25.48V153.18c0-11.29,7.67-20.47,20.5-24.55,17.42-5.58,40.17-6.75,56.2-6.75,22.77,0,46.22,2.37,62.74,6.35,13.29,3.2,21.87,13,21.87,25v24.57C405.78,191.8,393.88,203.23,379.25,203.23Zm-58.08-79.35c-15.88,0-38.42,1.15-55.59,6.65-12,3.81-19.11,12.28-19.11,22.65v24.57c0,12.95,11,23.48,24.53,23.48H379.25c13.53,0,24.53-10.53,24.53-23.48V153.18c0-11-8-20-20.34-23C367.07,126.23,343.79,123.88,321.17,123.88ZM271,186.9c-5.22-.29-9.23-4.44-9-9.27V153.18c0-4.28,2.93-7.39,8.7-9.25,11.81-3.77,29.73-5.85,50.47-5.85V138c21.37,0,43.17,2.18,58.32,5.83,5.49,1.34,8.76,4.81,8.76,9.27v24.57c.24,4.78-3.77,8.93-8.94,9.22ZM321.17,140v.07c-20.54,0-38.25,2-49.86,5.75-4.92,1.59-7.31,4-7.31,7.35v24.5c-.18,3.78,3,7,7.06,7.22H379.25c4-.23,7.19-3.44,7-7.17V153.11c0-5-5.06-6.79-7.24-7.32C364,142.17,342.39,140,321.17,140Z"/>
            </g>
            <path class="b07d3001-89d7-4a38-a7b7-a460bf7cff83" d="M271,194.13c-9.54-.26-17-7.62-16.76-16.43V153.18c0-4.31,1.78-12.08,13.9-15.94,16.14-5.18,37.74-6.26,53-6.26,22,0,44.53,2.27,60.29,6.06,9,2.17,14.56,8.35,14.56,16.14v24.57c.27,8.81-7.23,16.17-16.77,16.43Z"/>
            <path class="b6e0e8d2-9148-456a-b2aa-ab5159d36138" d="M365.71,105.2c-3.65-2.58-8-4.64-12.07-6.87-.94-.53-1.88-1-2.81-1.59l-.91-.54-.32-.2c1.62.9.4.24,0-.06-1.46-1-3-2-4.48-3l-1.84-1.19c-.8-.53.44.3-.17-.12l-.93-.63a40,40,0,0,1-3.89-3.09c-.66-.6-1.27-1.22-1.88-1.85s-.15-.16-.05,0c-.2-.23-.41-.46-.61-.7-.38-.44-.76-.9-1.12-1.36a5.61,5.61,0,0,0-6.18-1.6c-2,.84-3.26,2.94-1.91,4.61A42.76,42.76,0,0,0,334,94.48c1.36,1,2.81,2,4.26,2.94L340,98.53c.3.19.6.38.89.58l.52.34c-.46-.3-.36-.24,0,0,1.9,1.29,3.75,2.57,5.8,3.73,2.29,1.28,4.6,2.54,6.9,3.81q1.74.94,3.45,1.92c.44.25.89.5,1.32.76s1.26.85.05,0c1.77,1.25,4.59,1.73,6.46.38,1.61-1.18,2.18-3.53.28-4.87Z"/>
            <path class="baf0b737-4ea5-49ff-bea4-6a17fd6a5054" d="M399,151.48c-81.08-21.87-127,13.2-146.68,21.73-5,2.17,1.07-33.66,1.07-33.66l20.53-9.14,48.14-5.6,56.93,7.2,20.27,13.74S400.33,151.85,399,151.48Z"/>
            <path class="b6e0e8d2-9148-456a-b2aa-ab5159d36138" d="M345.93,59.75c2.86,1.88,5.75,3.74,8.6,5.66,1.29.87,2.57,1.77,3.8,2.74.63.5,1.25,1,1.84,1.56.22.19.56.68.82.77-.13,0-.6-.62-.21-.21l.5.55a4.34,4.34,0,0,0,2.62,1.55A4.15,4.15,0,0,0,367,71.6c1.57-1.3,2.29-4,.78-5.67a42.44,42.44,0,0,0-8-6.73c-2.92-2-5.88-3.88-8.82-5.8a4.36,4.36,0,0,0-3-.84,4.15,4.15,0,0,0-2.7,1.51c-1.19,1.66-1.21,4.45.68,5.68Z"/>
            <path class="b6e0e8d2-9148-456a-b2aa-ab5159d36138" d="M358.83,34.79a30.55,30.55,0,0,0,11.48,9.93c1.74.89,4.33.61,5.4-.83a2.81,2.81,0,0,0-1.18-4.31,31.57,31.57,0,0,1-3.34-2l.76.52a27.05,27.05,0,0,1-4.89-4.3l.58.66A24.71,24.71,0,0,1,365.73,32a4.58,4.58,0,0,0-5.28-1.38c-1.82.81-2.66,2.61-1.62,4.16Z"/>
            <path class="b6e0e8d2-9148-456a-b2aa-ab5159d36138" d="M392,49.75a37,37,0,0,0,14.08-1.39,4.58,4.58,0,0,0,2.52-1.51,2.71,2.71,0,0,0,.43-2.52,3.54,3.54,0,0,0-1.94-2,5.08,5.08,0,0,0-3.24-.33,34,34,0,0,1-6.15,1.25l1.12-.12a34.54,34.54,0,0,1-6.82,0,4.9,4.9,0,0,0-3,1,3,3,0,0,0-1.23,2.31A3,3,0,0,0,389,48.79a5.7,5.7,0,0,0,3,1Z"/>
            <g>
              <path class="b12a5e98-4589-489d-90bf-1d168a4d076b" d="M280.64,141.33a4.85,4.85,0,0,1-.1,2.19,2.51,2.51,0,0,1-1.31-1.58,4.16,4.16,0,0,1,.44-2.39A3.73,3.73,0,0,1,280.64,141.33Z"/>
              <path class="b12a5e98-4589-489d-90bf-1d168a4d076b" d="M277.35,142.8a7.73,7.73,0,0,1,.32,2.95,4.38,4.38,0,0,1-1.81-2.26,5.93,5.93,0,0,1,0-3.18A6.92,6.92,0,0,1,277.35,142.8Z"/>
              <path class="b12a5e98-4589-489d-90bf-1d168a4d076b" d="M272.14,141.16s.26.35.62.94a18.11,18.11,0,0,1,1.19,2.35,15.74,15.74,0,0,1,.78,2.48c.15.66.2,1.08.2,1.08a5.93,5.93,0,0,1-1.17-.62,4.7,4.7,0,0,1-1.78-2.08,5.22,5.22,0,0,1-.22-2.81A6.3,6.3,0,0,1,272.14,141.16Z"/>
              <path class="b12a5e98-4589-489d-90bf-1d168a4d076b" d="M267,142.18s.37.41.86,1.08a17.94,17.94,0,0,1,1.65,2.72,15.55,15.55,0,0,1,1,2.93,9.49,9.49,0,0,1,.25,1.29,7.93,7.93,0,0,1-1.45-.74,6.05,6.05,0,0,1-2.26-2.42,6,6,0,0,1-.44-3.28A8,8,0,0,1,267,142.18Z"/>
              <path class="b12a5e98-4589-489d-90bf-1d168a4d076b" d="M262,143.73s.3.53.72,1.37,1,2,1.52,3.3.93,2.47,1.2,3.34.4,1.42.4,1.42a9.61,9.61,0,0,1-1.86-.83,6.12,6.12,0,0,1-2.71-2.83,6,6,0,0,1,0-3.9A8.84,8.84,0,0,1,262,143.73Z"/>
            </g>
            <path class="a8b87af7-73cc-4876-a66f-c3a259703284" d="M500.13,239.74c6.93,1.35,24.44,4.52,25.16,28.48.54,17.85.54,22.53.54,22.53L126.56,329.31s-1.43-50.17-.41-68c.55-9.79,10.69-21.2,36.73-24.59,42.89-5.59,59-7.29,79.12-8.52,20.66-1.25,64.66-1.89,76.46-1.89s64.89,2.84,83.8,4C434.9,232.31,473.82,234.63,500.13,239.74Z"/>
            <g>
              <path class="eaedce31-dcdb-4f51-be60-7dbe6fef1c72" d="M382.47,167a23.49,23.49,0,0,1,8-3.7,42.5,42.5,0,0,1-6.69,6.1,35.35,35.35,0,0,1-7.53,4.19A25.38,25.38,0,0,1,382.47,167Z"/>
              <path class="eaedce31-dcdb-4f51-be60-7dbe6fef1c72" d="M387.66,180.67a14.4,14.4,0,0,1-4.52,2.69,12.34,12.34,0,0,1-5,.64,9.42,9.42,0,0,1,4.22-3.32A9,9,0,0,1,387.66,180.67Z"/>
            </g>
            <g>
              <path class="a57cb1c2-dcb5-44e6-8ab3-d50899e88e9a" d="M486.14,245.28c31.82,4,28.94,11.3,30.5,27.51.31,3.26,4.67,4.27,4.67-1,0-16.1-3.88-26.83-34.42-30.84C482.1,240.32,482.89,244.88,486.14,245.28Z"/>
              <path class="a57cb1c2-dcb5-44e6-8ab3-d50899e88e9a" d="M480.66,241.74c-.68-3.23-5.7-2.17-5,1S481.34,245,480.66,241.74Z"/>
              <path class="a57cb1c2-dcb5-44e6-8ab3-d50899e88e9a" d="M471.79,241c-.68-3.22-5.69-2.17-5,1.06S472.47,244.18,471.79,241Z"/>
            </g>
            <g class="b09778b3-ac27-43ce-b8cb-665443736684">
              <path class="a57cb1c2-dcb5-44e6-8ab3-d50899e88e9a" d="M164.43,381.81c-14-3.2-19.92-6.33-25.23-13.48-2-2.73-5.88.75-3.4,3.07,7.24,6.77,10,9.54,28.34,14.94C166.67,387.08,167.24,382.45,164.43,381.81Z"/>
              <path class="a57cb1c2-dcb5-44e6-8ab3-d50899e88e9a" d="M136,363.92a2.35,2.35,0,0,0-3.93,2.56A2.35,2.35,0,0,0,136,363.92Z"/>
            </g>
            <rect class="f70a3a9a-aabe-47ac-8872-54a8695aac8f" x="195.04" y="267.79" width="81.72" height="81.72" rx="17.72"/>
            <path class="b6e0e8d2-9148-456a-b2aa-ab5159d36138" d="M325.65,51.26a15.6,15.6,0,0,1,1.84,1.65s-.65,0-1.67-.13-2.42-.29-3.95-.61a39.76,39.76,0,0,1-4-1.07c-1-.33-1.69-.6-1.69-.6a4.75,4.75,0,0,1,1.32-1,5.62,5.62,0,0,1,3.79-.46A11.46,11.46,0,0,1,325.65,51.26Z"/>
            <g>
              <path class="a5fcd050-f76e-451f-9e6a-e9c57c7a35d4" d="M348.9,492.24c-13.22,4.19-27.86,3.91-37.37,2.59-1.46-.2-1.5-3.2.5-2.9a75,75,0,0,0,36.1-2.1C349.24,489.5,350.51,491.73,348.9,492.24Z"/>
              <path class="a5fcd050-f76e-451f-9e6a-e9c57c7a35d4" d="M307,494.09a1.54,1.54,0,1,1,.86-3A1.54,1.54,0,1,1,307,494.09Z"/>
            </g>
            <path class="b6e0e8d2-9148-456a-b2aa-ab5159d36138" d="M363,97.11a15.11,15.11,0,0,1-1.84-1.42s.68,0,1.74.17,2.51.3,4.1.57,3,.59,4.05.83,1.7.44,1.7.44a5.77,5.77,0,0,1-1.47.84,7.15,7.15,0,0,1-4,.43A11.62,11.62,0,0,1,363,97.11Z"/>
            <g>
              <path class="a9e02352-8445-45cd-8d49-dc708b0e3ac9" d="M10.32,199.84A12.65,12.65,0,0,1,14.73,176a13.9,13.9,0,0,1,1.44-.08,12.66,12.66,0,0,1,8.18,22.3L37.64,315.81l-14,1.58Z"/>
              <path class="b6e0e8d2-9148-456a-b2aa-ab5159d36138" d="M16.17,179.46a9.15,9.15,0,0,1,4.47,17.13L33.77,312.72l-7.07.8L13.57,197.39a9.15,9.15,0,0,1,1.56-17.87,8.94,8.94,0,0,1,1-.06m0-7a16.16,16.16,0,0,0-16.07,18A16.1,16.1,0,0,0,7,202l12.7,112.36.79,6.95,7-.78,7.07-.8,6.95-.79-.78-6.95L28,199.58a16.16,16.16,0,0,0-11.85-27.12Z"/>
            </g>
            <path class="a9e02352-8445-45cd-8d49-dc708b0e3ac9" d="M7.06,189.64a9.15,9.15,0,1,1,13.58,7L33.77,312.72l-7.07.8L13.57,197.39A9.15,9.15,0,0,1,7.06,189.64Z"/>
            <path class="b07d3001-89d7-4a38-a7b7-a460bf7cff83" d="M14.38,345.68c0-12.61,6.4-22.71,13.24-25.52l7.09-1.51a117.59,117.59,0,0,0,0,54.07l-7.09-1.52C20.78,366.79,14.38,358.28,14.38,345.68Z"/>
            <path class="b07d3001-89d7-4a38-a7b7-a460bf7cff83" d="M608.05,345.08a122.76,122.76,0,0,0-.92-12.83c-3.2-23.63-11.82-40.5-15.46-45.72l-17.22-5.78V411.06l19.23-6.6c4.33-6.15,14.38-27.68,14.38-58.55C608.06,345.63,608.05,345.36,608.05,345.08Z"/>
            <path class="b07d3001-89d7-4a38-a7b7-a460bf7cff83" d="M41.88,345.07a128.07,128.07,0,0,1,.92-13c3.2-23.91,11.82-41,15.47-46.25L75.48,280v131.8l-19.22-6.68c-4.33-6.22-14.39-28-14.39-59.22C41.87,345.63,41.88,345.35,41.88,345.07Z"/>
            <path class="af0d1f47-68da-4a57-bc2f-74e059e6554a" d="M576.85,269.43l22.32,8.76a8.46,8.46,0,0,1,4,3.12,94.39,94.39,0,0,1,7.81,15.35l9.31-82.32c-5.12-2.47-9.37-4.55-12-5.83L576.31,230a53.36,53.36,0,0,1,.54,7.52Z"/>
            <path class="af0d1f47-68da-4a57-bc2f-74e059e6554a" d="M28.66,205.25,39,296.2a95.71,95.71,0,0,1,7.85-15.61,8.36,8.36,0,0,1,4-3.16l22.65-9V237.56a51.92,51.92,0,0,1,.63-8l-39.38-27.1Z"/>
            <path class="af0d1f47-68da-4a57-bc2f-74e059e6554a" d="M39,296.2a95.71,95.71,0,0,1,7.85-15.61,8.36,8.36,0,0,1,4-3.16l22.65-9V263H35.19Z"/>
            <path class="af0d1f47-68da-4a57-bc2f-74e059e6554a" d="M576.85,269.43l22.32,8.76a8.46,8.46,0,0,1,4,3.12,94.39,94.39,0,0,1,7.81,15.35L614.75,263h-37.9Z"/>
            <path class="b6e0e8d2-9148-456a-b2aa-ab5159d36138" d="M319.5,35.25h-1a11.27,11.27,0,0,0-1.16.06c-6.45.68-11.8,4-15.93,9.92h41.13C333,39,326.93,35.25,319.5,35.25Z"/>
          </g>
          <path class="e838c31d-8530-4e51-8d9d-0b8623d7f2a0" d="M483.5,194.18c-58.69,6.67-50.22,32.13-87.48,30.55-303.63-12.92-275.73,41.09-275.73,41.09l-.92,75.53s-31.9-2.4-36.7,16.8-2.44-111.66-2.44-111.66l6.44-34.27,32.7-18.87,98.5-11.2,28.6-4.4,7.76,19.73,30.57,2.17L340.27,198l42.63,1.08,16.74-16.93,56.92,4.75"/>
          <g>
            <path class="e4a2e100-80fd-4937-b2d6-322e8e24952d" d="M375.42,511.55c6.61,0,6.62-10.26,0-10.26S368.81,511.55,375.42,511.55Z"/>
            <path class="be44b605-0812-4f56-8966-84b03f3745aa" d="M516.26,495.54a3.21,3.21,0,0,1,.36-6.41c5,.24,18.64-11.3,22.68-15,5.43-4.95,9-15.81,9.6-29.81a3.21,3.21,0,0,1,3.35-3.07h.07a3.21,3.21,0,0,1,3,3.35c-.69,16-5.47,25.26-10.89,32.8-4.32,6-18.59,18.6-28.13,18.13Z"/>
            <path class="a57cb1c2-dcb5-44e6-8ab3-d50899e88e9a" d="M98.81,242.74a2.58,2.58,0,0,0,2.13-2.9c-3.19-23.25,16.4-29,36.75-33,1.27-.24,2.47-.47,3.57-.7a2.59,2.59,0,1,0-1-5.07l-3.5.69c-15.74,3-45,8.69-40.9,38.74a2.59,2.59,0,0,0,2.92,2.22Z"/>
          </g>
        </g>
      </g>
    </g>
  </g>
</svg>
