<?xml version="1.0"?>
<svg xmlns="http://www.w3.org/2000/svg" width="500" height="500" viewBox="0 0 511.837 511.837"><g><path fill="#725d57" d="m479.347 140.367c-33.427 0-60.621-27.194-60.621-60.621v-32.49h-325.615v32.49c0 33.427-27.194 60.621-60.621 60.621h-32.49v273.527h511.837v-273.527z"/><path fill="#53433f" d="m511.837 140.367h-32.49c-33.427 0-60.621-27.194-60.621-60.621v-32.49h-162.808v366.639h255.918v-273.528z"/><path fill="#c66dd6" d="m307.009 319.183c-19.947-25.641-39.607-45.546-40.435-46.381l-10.656-10.754-10.655 10.754c-.827.835-20.487 20.74-40.435 46.381-28.539 36.685-42.412 65.064-42.412 86.762 0 32.332 26.305 58.637 58.637 58.637 5.632 0 11.267-.931 16.749-2.768 5.826-1.951 11.921-2.941 18.116-2.941s12.291.99 18.117 2.942c5.481 1.836 11.116 2.767 16.748 2.767 32.333 0 58.638-26.305 58.638-58.637 0-21.698-13.873-50.078-42.412-86.762z"/><path fill="#9152b4" d="m307.009 319.183c-19.947-25.641-39.607-45.546-40.435-46.381l-10.656-10.754v196.824c6.195 0 12.291.99 18.117 2.942 5.481 1.836 11.116 2.767 16.748 2.767 32.333 0 58.638-26.305 58.638-58.637 0-21.697-13.873-50.077-42.412-86.761z"/><g><path fill="#e1dcf3" d="m255.918 405.153c-13.61 0-24.682-11.072-24.682-24.683 0-13.609 11.072-24.682 24.682-24.682s24.682 11.072 24.682 24.682c.001 13.611-11.072 24.683-24.682 24.683z"/></g><g><path fill="#f5f0ff" d="m240.918 141.89h30v30.002h-30z"/></g><g><path fill="#f5f0ff" d="m180.24 148.268h30v30.001h-30z" transform="matrix(.978 -.208 .208 .978 -29.68 44.162)"/></g><g><path fill="#f5f0ff" d="m122.214 167.121h30v30.002h-30z" transform="matrix(.914 -.407 .407 .914 -62.212 71.554)"/></g><g><path fill="#f5f0ff" d="m69.376 197.627h30v30.002h-30z" transform="matrix(.809 -.588 .588 .809 -108.865 90.202)"/></g><g><path fill="#f5f0ff" d="m301.596 148.269h30.001v30h-30.001z" transform="matrix(.208 -.978 .978 .208 91.062 438.994)"/></g><g><path fill="#f5f0ff" d="m359.622 167.122h30.002v30h-30.002z" transform="matrix(.407 -.914 .914 .407 55.865 450.271)"/></g><g><path fill="#f5f0ff" d="m240.918 201.894h30v30.002h-30z"/></g><g><path fill="#f5f0ff" d="m181.866 210.719h30v30.001h-30z" transform="matrix(.956 -.292 .292 .956 -57.394 67.425)"/></g><g><path fill="#f5f0ff" d="m127.975 236.424h30v30.002h-30z" transform="matrix(.829 -.559 .559 .829 -116.151 122.933)"/></g><g><path fill="#f5f0ff" d="m299.97 210.72h30.001v30h-30.001z" transform="matrix(.292 -.956 .956 .292 7.023 460.932)"/></g><g><path fill="#f5f0ff" d="m353.861 236.425h30.002v30h-30.002z" transform="matrix(.559 -.829 .829 .559 -45.842 416.635)"/></g><g><path fill="#f5f0ff" d="m412.46 197.628h30.002v30h-30.002z" transform="matrix(.588 -.809 .809 .588 4.194 433.488)"/></g><path fill="#c66dd6" d="m388.726 47.256v32.49c0 49.969 40.652 90.621 90.621 90.621h32.49v-123.111z"/><path fill="#9152b4" d="m388.726 47.256v32.49c0 49.969 40.652 90.621 90.621 90.621h32.49v-123.111z"/><path fill="#c66dd6" d="m0 47.256v123.111h32.491c49.968 0 90.621-40.652 90.621-90.621v-32.49z"/><g><path fill="#f5f0ff" d="m368.433 323.891h68.4v30h-68.4z"/></g><g><path fill="#f5f0ff" d="m75.004 323.891h68.401v30h-68.401z"/></g><g><path fill="#e1dcf3" d="m301.596 148.269h30.001v30h-30.001z" transform="matrix(.208 -.978 .978 .208 91.062 438.994)"/></g><g><path fill="#e1dcf3" d="m359.622 167.122h30.002v30h-30.002z" transform="matrix(.407 -.914 .914 .407 55.865 450.271)"/></g><g><path fill="#e1dcf3" d="m299.97 210.72h30.001v30h-30.001z" transform="matrix(.292 -.956 .956 .292 7.023 460.932)"/></g><g><path fill="#e1dcf3" d="m353.861 236.425h30.002v30h-30.002z" transform="matrix(.559 -.829 .829 .559 -45.842 416.635)"/></g><g><path fill="#e1dcf3" d="m412.46 197.628h30.002v30h-30.002z" transform="matrix(.588 -.809 .809 .588 4.194 433.488)"/></g><g><path fill="#e1dcf3" d="m368.433 323.891h68.4v30h-68.4z"/></g><path fill="#e1dcf3" d="m255.918 141.89h15v30.002h-15z"/><path fill="#e1dcf3" d="m255.918 201.894h15v30.002h-15z"/><path fill="#cecef4" d="m255.918 355.789v49.364c13.61 0 24.682-11.072 24.682-24.683.001-13.609-11.072-24.681-24.682-24.681z"/></g></svg>
