<?xml version="1.0" encoding="iso-8859-1"?>
<!-- Generator: Adobe Illustrator 19.0.0, SVG Export Plug-In . SVG Version: 6.00 Build 0)  -->
<svg xmlns="http://www.w3.org/2000/svg" xmlns:xlink="http://www.w3.org/1999/xlink" version="1.1" id="Layer_1" x="0px" y="0px" viewBox="0 0 512 512" style="enable-background:new 0 0 512 512;" xml:space="preserve" width="500" height="500">
<path style="fill:#9AD14B;" d="M333.284,88.276l20.311,12.74v0.038c-0.667-0.025-1.346-0.038-2.012-0.038  c-12.174,0-23.883,48.307-34.838,54.709c-18.148-15.218-38.812-15.092-60.746-15.092s-42.597-3.899-60.746,11.319  c-10.954-6.402-22.663-10.719-34.838-10.719c-0.679,0-1.346-40.204-2.025-40.179v-0.038l20.324-12.74  c13.922-8.716,25.116-20.714,32.825-34.649c7.71-13.922,11.935-29.782,11.935-46.22h65.034  C288.511,40.283,305.427,70.832,333.284,88.276z"/>
<path style="fill:#90BC42;" d="M208.208,128.22c-0.679,0-1.346,0.013-2.025,0.038v-0.038l20.324-12.74  c13.922-8.716,20.689-91.634,20.689-108.072h-23.72c0,16.438-4.226,32.297-11.935,46.22c-7.71,13.935-18.903,25.933-32.825,34.649  l-20.324,12.74v0.038c0.679-0.025,1.346-0.038,2.025-0.038c12.174,0,23.883,30.662,34.838,37.064  c4.391-3.682,8.932-6.969,13.601-9.849C208.638,128.229,208.425,128.22,208.208,128.22z"/>
<path style="fill:#F7B239;" d="M412.48,119.743c-4.062,0-8.074,0.428-12.011,1.27c-14.174-12.325-30.071-19.444-46.874-19.959  c-0.667-0.025-1.346-0.038-2.012-0.038c-12.174,0-23.883,3.459-34.838,9.86C298.598,95.659,277.934,87.044,256,87.044  s-42.597,8.615-60.746,23.833c-5.307-3.094-10.778-5.496-16.4-7.156c-5.987-1.786-12.149-2.704-18.438-2.704  c-0.679,0-1.346,0.013-2.025,0.038c-16.803,0.528-32.687,7.647-46.861,19.959c-3.937-0.843-7.949-1.27-12.011-1.27  C44.56,119.743,0,198.575,0,295.818S44.56,471.893,99.52,471.893c4.062,0,8.074-0.428,12.011-1.27  c14.74,12.803,31.341,19.997,48.886,19.997c12.174,0,23.883-3.459,34.838-9.86c18.148,15.218,38.812,23.833,60.746,23.833  s42.598-8.615,60.746-23.833c10.954,6.402,22.663,9.86,34.838,9.86c17.545,0,34.146-7.194,48.886-19.997  c3.937,0.843,7.949,1.27,12.011,1.27c54.96,0,99.52-78.831,99.52-176.075S467.441,119.743,412.48,119.743z"/>
<path style="fill:#E09B2D;" d="M397.338,337.548c-20.94,29.228-47.502,51.917-77.511,65.387v-22.626h-31.442v33.001  c-10.527,2.276-21.343,3.471-32.385,3.471c-28.034,0-54.659-7.647-78.617-21.368c-23.971-13.734-45.289-33.53-62.733-57.866  c4.402,1.019,8.804,1.987,13.218,2.893c25.631,5.358,51.514,9.08,77.511,11.193v31.19h33.957v-29.367  c48.471,1.283,97.042-3.031,144.759-13.004C388.509,339.535,392.936,338.566,397.338,337.548z"/>
<g>
	<path style="fill:#E54728;" d="M384.094,340.453c-18.475,21.204-40.271,37.869-64.267,48.647v-22.626h-31.442v33.001   c-10.527,2.276-21.343,3.471-32.385,3.471c-28.034,0-54.659-7.647-78.617-21.368c-18.211-10.439-34.901-24.374-49.515-41.139   c25.631,5.358,51.514,9.08,77.511,11.193v31.19h33.957v-29.367C287.807,354.74,336.378,350.426,384.094,340.453z"/>
	<polygon style="fill:#E54728;" points="256,261.961 288.687,318.595 223.3,318.595  "/>
</g>
<g>
	<polygon style="fill:#E09B2D;" points="374.511,210.195 403.437,291.278 290.901,268.325  "/>
	<polygon style="fill:#E09B2D;" points="221.1,268.325 204.435,271.721 119.391,289.064 108.55,291.278 137.477,210.195  "/>
</g>
<g>
	<polygon style="fill:#E54728;" points="204.435,271.721 119.391,289.064 141.25,227.803  "/>
	<polygon style="fill:#E54728;" points="307.162,271.721 392.206,289.064 370.348,227.803  "/>
</g>
<g>
	<path style="fill:#E09B2D;" d="M78.668,295.818c0-138.004,90.652-188.595,101.09-191.827c-6.28-1.951-12.74-2.974-19.341-2.974   c-0.679,0-1.346,0.013-2.025,0.038c-16.803,0.528-32.687,7.647-46.861,19.959c-3.937-0.843-7.949-1.27-12.011-1.27   C44.559,119.743,0,198.575,0,295.818s44.559,176.075,99.52,176.075c4.062,0,8.074-0.428,12.011-1.27   c14.74,12.803,31.341,19.997,48.886,19.997c6.589,0,13.04-1.021,19.31-2.966C169.3,484.418,78.668,441.218,78.668,295.818z"/>
	<path style="fill:#E09B2D;" d="M195.254,110.877c0,0-37.353,28.499-37.353,56.168c0,0-3.345-33.303,20.953-63.324   C184.476,105.381,189.947,107.783,195.254,110.877z"/>
	<path style="fill:#E09B2D;" d="M195.254,480.759c0,0-37.353-28.499-37.353-56.168c0,0-3.345,33.303,20.953,63.324   C184.476,486.255,189.947,483.853,195.254,480.759z"/>
	<path style="fill:#E09B2D;" d="M412.48,119.743c-3.601,0-7.159,0.356-10.664,1.019c49.921,9.459,88.803,84.219,88.803,175.056   s-38.882,165.597-88.803,175.056c3.504,0.663,7.063,1.019,10.664,1.019c54.96,0,99.52-78.831,99.52-176.075   S467.441,119.743,412.48,119.743z"/>
</g>
<g>
</g>
<g>
</g>
<g>
</g>
<g>
</g>
<g>
</g>
<g>
</g>
<g>
</g>
<g>
</g>
<g>
</g>
<g>
</g>
<g>
</g>
<g>
</g>
<g>
</g>
<g>
</g>
<g>
</g>
</svg>
