<?xml version="1.0" encoding="utf-8"?>
<!-- Generator: Adobe Illustrator 16.0.0, SVG Export Plug-In . SVG Version: 6.00 Build 0)  -->
<!DOCTYPE svg PUBLIC "-//W3C//DTD SVG 1.1//EN" "http://www.w3.org/Graphics/SVG/1.1/DTD/svg11.dtd">
<svg xmlns="http://www.w3.org/2000/svg" xmlns:xlink="http://www.w3.org/1999/xlink" version="1.1" id="Layer_1" x="0px" y="0px" width="500" height="500" viewBox="0 0 512 512" enable-background="new 0 0 512 512" xml:space="preserve">
<g id="voodoo_doll">
	<g>
		<polygon fill="#E6E9ED" points="438.837,405.246 361.197,395.934 363.744,374.747 441.384,384.059   "/>
	</g>
	<path fill="#A0D468" d="M465.274,374.888c-6.109-7.781-15.297-12.234-25.188-12.234c-7.125,0-14.14,2.438-19.749,6.844   c-6.719,5.281-10.984,12.858-12,21.343s1.328,16.859,6.609,23.579c6.109,7.78,15.28,12.233,25.171,12.233   c7.125,0,14.141-2.422,19.766-6.844c6.719-5.28,10.969-12.859,12-21.344C472.899,389.98,470.556,381.605,465.274,374.888z"/>
	<g>
		<polygon fill="#E6E9ED" points="108.516,301.17 64.338,257 79.423,241.922 123.602,286.093   "/>
	</g>
	<path fill="#EAAD7A" d="M471.696,302.436c-2.953-16.187-24.125-25.108-59.624-25.108c-14.438,0-30.594,1.547-46.703,4.5   c-24.765,4.516-47.607,11.906-64.342,20.796c-9.984,5.312-16.641,10.562-20.953,15.531c-4.328-4.969-10.976-10.219-20.96-15.531   c-16.734-8.89-39.585-16.28-64.342-20.796c-16.117-2.953-32.266-4.5-46.703-4.5c-35.491,0-56.67,8.922-59.624,25.108   c-1.617,8.844,1.906,22.266,27.835,36.062c16.734,8.89,39.585,16.28,64.342,20.796c11.859,2.172,23.734,3.578,34.937,4.172   c-8.141,10.734-15.508,22.796-21.515,34.812c-11.352,22.734-18.531,46.047-20.219,65.608c-1.141,13.281-0.492,36.827,16.672,45.39   c3.594,1.797,7.555,2.719,11.773,2.719h0.008c26.765,0,56.866-36.28,74.826-72.232c1.031-2.094,2.031-4.188,3-6.281   c0.984,2.094,1.969,4.188,3.016,6.281c17.953,35.952,48.062,72.232,74.826,72.232c4.219,0,8.188-0.922,11.781-2.719   c17.156-8.562,17.812-32.108,16.672-45.39c-1.688-19.562-8.875-42.874-20.219-65.608c-6.016-12.016-13.375-24.077-21.515-34.812   c11.171-0.594,23.015-2,34.843-4.172c24.766-4.516,47.624-11.906,64.358-20.796C469.79,324.701,473.306,311.279,471.696,302.436z"/>
	<path fill="#F4BE8E" d="M358.525,204.313c-20.687-29.187-48.529-45.265-78.42-45.265c-29.881,0-57.725,16.078-78.404,45.265   c-19.882,28.062-30.835,65.187-30.835,104.544c0,39.343,10.953,76.482,30.835,104.546c20.679,29.187,48.522,45.248,78.404,45.248   c29.891,0,57.733-16.062,78.42-45.248c19.875-28.063,30.828-65.203,30.828-104.546C389.354,269.5,378.4,232.376,358.525,204.313z"/>
	<path fill="#EAAD7A" d="M269.45,457.964c3.516,0.453,7.077,0.688,10.655,0.688c3.594,0,7.156-0.234,10.672-0.688v-127.31H269.45   V457.964z"/>
	<path fill="#FFD2A6" d="M400.791,49.989C368.557,17.755,325.699,0.006,280.105,0.006c-45.576,0-88.435,17.749-120.668,49.983   c-32.234,32.233-49.983,75.092-49.983,120.669c0,45.593,17.75,88.451,49.983,120.685s75.092,49.983,120.668,49.983   c45.594,0,88.451-17.75,120.686-49.983c32.233-32.233,49.983-75.092,49.983-120.685C450.774,125.081,433.024,82.223,400.791,49.989   z"/>
	<path fill="#4A89DC" d="M216.116,85.332c-14.242,0-27.64,5.547-37.71,15.625c-10.07,10.062-15.625,23.452-15.625,37.702   c0,14.249,5.555,27.64,15.625,37.718c10.07,10.062,23.468,15.625,37.71,15.625c14.25,0,27.64-5.563,37.71-15.625   c10.078-10.078,15.625-23.469,15.625-37.718c0-14.25-5.547-27.641-15.625-37.702C243.755,90.879,230.365,85.332,216.116,85.332z"/>
	<path fill="#5D9CEC" d="M216.116,202.657c-17.093,0-33.164-6.656-45.257-18.749c-12.085-12.078-18.742-28.156-18.742-45.249   c0-17.094,6.656-33.171,18.75-45.249c12.086-12.094,28.156-18.75,45.25-18.75s33.163,6.656,45.256,18.75   c12.078,12.094,18.733,28.155,18.733,45.249c0,17.093-6.655,33.171-18.733,45.249C249.287,196.001,233.209,202.657,216.116,202.657   z M216.116,96.004c-11.398,0-22.109,4.438-30.171,12.484c-8.055,8.062-12.492,18.78-12.492,30.171   c0,11.405,4.438,22.108,12.492,30.171c8.062,8.062,18.773,12.5,30.171,12.5c11.398,0,22.108-4.438,30.171-12.5   c8.055-8.062,12.492-18.766,12.492-30.171c0-11.391-4.437-22.109-12.492-30.171C238.224,100.441,227.514,96.004,216.116,96.004z"/>
	<path fill="#4A89DC" d="M381.822,100.957c-10.078-10.078-23.469-15.625-37.718-15.625c-14.233,0-27.64,5.547-37.702,15.625   c-10.078,10.062-15.625,23.452-15.625,37.702c0,14.249,5.547,27.64,15.625,37.718c10.062,10.062,23.469,15.625,37.702,15.625   c14.249,0,27.64-5.563,37.718-15.625C402.619,155.58,402.619,121.737,381.822,100.957z"/>
	<path fill="#5D9CEC" d="M344.104,202.657c-17.093,0-33.155-6.656-45.249-18.749c-12.094-12.078-18.75-28.156-18.75-45.249   c0-17.094,6.656-33.155,18.75-45.249s28.156-18.75,45.249-18.75s33.171,6.656,45.265,18.75c24.953,24.952,24.953,65.545,0,90.498   C377.275,196.001,361.197,202.657,344.104,202.657z M344.104,96.004c-11.391,0-22.108,4.438-30.171,12.484   c-8.047,8.062-12.484,18.78-12.484,30.171c0,11.405,4.438,22.108,12.484,30.171c8.062,8.062,18.78,12.5,30.171,12.5   c11.405,0,22.108-4.438,30.171-12.5c16.641-16.641,16.641-43.702,0-60.342C366.213,100.441,355.51,96.004,344.104,96.004z"/>
	<path fill="#434A54" d="M224.029,145.831c-4.164-4.156-4.164-10.922,0-15.078c4.164-4.172,10.922-4.172,15.085,0   c4.164,4.156,4.164,10.922,0,15.078C234.951,150.002,228.193,150.002,224.029,145.831z"/>
	<path fill="#434A54" d="M208.944,160.924c-4.164-4.172-4.164-10.922,0-15.093c4.164-4.156,10.921-4.156,15.085,0   c4.164,4.171,4.164,10.921,0,15.093C219.865,165.08,213.108,165.08,208.944,160.924z"/>
	<path fill="#434A54" d="M208.944,130.753c-4.164-4.172-4.164-10.922,0-15.094c4.164-4.156,10.921-4.156,15.085,0   c4.164,4.172,4.164,10.922,0,15.094C219.865,134.909,213.108,134.909,208.944,130.753z"/>
	<path fill="#434A54" d="M193.858,145.831c-4.164-4.156-4.164-10.922,0-15.078c4.164-4.172,10.921-4.172,15.085,0   c4.164,4.156,4.164,10.922,0,15.078C204.78,150.002,198.022,150.002,193.858,145.831z"/>
	<path fill="#434A54" d="M351.275,130.753c-4.155,4.156-10.921,4.156-15.077,0c-4.172-4.172-4.172-10.922,0-15.094   c4.156-4.156,10.922-4.156,15.077,0C355.447,119.831,355.447,126.581,351.275,130.753z"/>
	<path fill="#434A54" d="M366.369,145.831c-4.172,4.171-10.922,4.171-15.094,0c-4.155-4.156-4.155-10.922,0-15.078   c4.172-4.172,10.922-4.172,15.094,0C370.525,134.909,370.525,141.675,366.369,145.831z"/>
	<path fill="#434A54" d="M336.198,145.831c-4.172,4.171-10.921,4.171-15.093,0c-4.156-4.156-4.156-10.922,0-15.078   c4.172-4.172,10.921-4.172,15.093,0C340.354,134.909,340.354,141.675,336.198,145.831z"/>
	<path fill="#434A54" d="M351.275,160.924c-4.155,4.156-10.921,4.156-15.077,0c-4.172-4.172-4.172-10.922,0-15.093   c4.156-4.156,10.922-4.156,15.077,0C355.447,150.002,355.447,156.752,351.275,160.924z"/>
	<path fill="#EAAD7A" d="M361.838,237.688c-4.219-4.109-10.969-4.031-15.077,0.203C346.589,238.062,327.809,256,280.746,256   c-43.342,0-63.935-15.406-67.146-18.031c-1.938-2.031-4.672-3.312-7.703-3.312c-5.891,0-10.664,4.781-10.664,10.672   c0,2.984,1.227,5.688,3.211,7.625l-0.039,0.031c1.023,1,25.788,24.343,82.341,24.343c56.733,0,80.326-23.562,81.295-24.562   C366.15,248.547,366.072,241.797,361.838,237.688z"/>
	<g>
		<path fill="#434A54" d="M290.777,426.652H269.45c-5.891,0-10.672-4.781-10.672-10.655c0-5.907,4.781-10.673,10.672-10.673h21.327    c5.891,0,10.672,4.766,10.672,10.673C301.449,421.871,296.668,426.652,290.777,426.652z"/>
	</g>
	<g>
		<path fill="#434A54" d="M290.777,383.996H269.45c-5.891,0-10.672-4.78-10.672-10.671s4.781-10.672,10.672-10.672h21.327    c5.891,0,10.672,4.781,10.672,10.672S296.668,383.996,290.777,383.996z"/>
	</g>
	<g>
		<path fill="#434A54" d="M338.089,277.546c-4.031,0-7.874-2.281-9.687-6.171l-8.672-18.672c-2.469-5.344-0.156-11.688,5.188-14.156    c5.344-2.484,11.687-0.172,14.171,5.172l8.656,18.672c2.484,5.344,0.172,11.687-5.172,14.171    C341.12,277.233,339.589,277.546,338.089,277.546z"/>
	</g>
	<g>
		<path fill="#434A54" d="M280.105,287.546c-5.89,0-10.655-4.781-10.655-10.672V256c0-5.906,4.766-10.672,10.655-10.672    c5.891,0,10.672,4.766,10.672,10.672v20.874C290.777,282.765,285.996,287.546,280.105,287.546z"/>
	</g>
	<g>
		<path fill="#434A54" d="M233.412,280.89c-1.367,0-2.758-0.266-4.094-0.828c-5.445-2.266-8.016-8.516-5.75-13.952l7.781-18.672    c2.266-5.438,8.507-8,13.945-5.734s8.016,8.516,5.75,13.953l-7.781,18.655C241.56,278.405,237.591,280.89,233.412,280.89z"/>
	</g>
	<path fill="#AC92EB" d="M71.884,217.454c-17.648,0-32,14.359-32,31.999c0,17.656,14.352,31.999,32,31.999   c17.64,0,32-14.343,32-31.999C103.884,231.813,89.524,217.454,71.884,217.454z"/>
</g>
</svg>
